<svg id="图层_1" data-name="图层 1" xmlns="http://www.w3.org/2000/svg" xmlns:xlink="http://www.w3.org/1999/xlink" viewBox="0 0 400 300"><defs><style>.cls-1{opacity:0.5;}.cls-2{fill:url(#未命名的渐变_19);}.cls-3{fill:url(#未命名的渐变_19-2);}.cls-4{fill:url(#未命名的渐变_19-3);}.cls-5{fill:url(#未命名的渐变_19-4);}.cls-6{opacity:0.7;}.cls-7{fill:url(#未命名的渐变_19-5);}.cls-8{fill:url(#未命名的渐变_19-6);}.cls-9{fill:url(#未命名的渐变_19-7);}.cls-10{fill:url(#未命名的渐变_19-8);}.cls-11{fill:#fff;}.cls-12{fill:url(#未命名的渐变_20);}.cls-13{fill:url(#未命名的渐变_19-9);}.cls-14{fill:url(#未命名的渐变_19-10);}.cls-15{fill:url(#未命名的渐变_19-11);}.cls-16{fill:url(#未命名的渐变_19-12);}.cls-17{fill:url(#未命名的渐变_67);}.cls-18,.cls-25,.cls-27{fill:none;}.cls-18,.cls-27{stroke-miterlimit:10;}.cls-18{stroke-width:4px;stroke:url(#未命名的渐变_73);}.cls-19{fill:url(#未命名的渐变_24);}.cls-20{fill:url(#未命名的渐变_24-2);}.cls-21{fill:url(#未命名的渐变_64);}.cls-22{fill:#343999;}.cls-23{fill:#b3c6ed;}.cls-24{fill:url(#未命名的渐变_73-2);}.cls-25{stroke:#fff;stroke-linejoin:round;}.cls-25,.cls-27{stroke-linecap:round;stroke-width:3px;}.cls-26{fill:url(#未命名的渐变_24-3);}.cls-27{stroke:#343999;}.cls-28{fill:#070b33;}.cls-29{fill:#f8c2be;}.cls-30{fill:url(#未命名的渐变_73-3);}.cls-31{fill:url(#未命名的渐变_73-4);}.cls-32{fill:url(#未命名的渐变_73-5);}.cls-33{fill:#05081e;}.cls-34{fill:url(#未命名的渐变_24-4);}.cls-35{fill:url(#未命名的渐变_24-5);}</style><linearGradient id="未命名的渐变_19" x1="208.63" y1="160.67" x2="208.63" y2="64.67" gradientUnits="userSpaceOnUse"><stop offset="0" stop-color="#fff"/><stop offset="0.88" stop-color="#eeeff3"/><stop offset="1" stop-color="#ebecf1"/></linearGradient><linearGradient id="未命名的渐变_19-2" x1="208.63" y1="64.67" x2="208.63" y2="60.67" xlink:href="#未命名的渐变_19"/><linearGradient id="未命名的渐变_19-3" x1="237.22" y1="141" x2="237.22" y2="45" xlink:href="#未命名的渐变_19"/><linearGradient id="未命名的渐变_19-4" x1="237.22" y1="45" x2="237.22" y2="41" xlink:href="#未命名的渐变_19"/><linearGradient id="未命名的渐变_19-5" x1="254.22" y1="173.04" x2="254.22" y2="77.04" xlink:href="#未命名的渐变_19"/><linearGradient id="未命名的渐变_19-6" x1="254.22" y1="77.04" x2="254.22" y2="73.04" xlink:href="#未命名的渐变_19"/><linearGradient id="未命名的渐变_19-7" x1="294.77" y1="154.16" x2="294.77" y2="58.16" xlink:href="#未命名的渐变_19"/><linearGradient id="未命名的渐变_19-8" x1="294.77" y1="58.16" x2="294.77" y2="54.16" xlink:href="#未命名的渐变_19"/><linearGradient id="未命名的渐变_20" x1="264.22" y1="195" x2="264.22" y2="126.34" gradientUnits="userSpaceOnUse"><stop offset="0.25" stop-color="#fff"/><stop offset="0.91" stop-color="#eeeff3"/><stop offset="1" stop-color="#ebecf1"/></linearGradient><linearGradient id="未命名的渐变_19-9" x1="116.55" y1="94.22" x2="116.55" y2="62.73" xlink:href="#未命名的渐变_19"/><linearGradient id="未命名的渐变_19-10" x1="315.07" y1="196.37" x2="315.07" y2="116.37" xlink:href="#未命名的渐变_19"/><linearGradient id="未命名的渐变_19-11" x1="93.77" y1="183.08" x2="93.77" y2="98.91" xlink:href="#未命名的渐变_19"/><linearGradient id="未命名的渐变_19-12" x1="-7744.68" y1="206.74" x2="-7744.68" y2="110.74" gradientTransform="matrix(-1, 0, 0, 1, -7690.48, 0)" xlink:href="#未命名的渐变_19"/><linearGradient id="未命名的渐变_67" x1="200" y1="257.52" x2="200" y2="165.38" gradientUnits="userSpaceOnUse"><stop offset="0.31" stop-color="#fff"/><stop offset="0.92" stop-color="#eeeff3"/><stop offset="1" stop-color="#ebecf1"/></linearGradient><linearGradient id="未命名的渐变_73" x1="92.81" y1="139.83" x2="110.04" y2="139.83" gradientUnits="userSpaceOnUse"><stop offset="0" stop-color="#f7b8a4"/><stop offset="0" stop-color="#f7b7a3"/><stop offset="0.09" stop-color="#f9a68d"/><stop offset="0.19" stop-color="#fa987c"/><stop offset="0.32" stop-color="#fa8f71"/><stop offset="0.5" stop-color="#fb896a"/><stop offset="1" stop-color="#fb8868"/></linearGradient><linearGradient id="未命名的渐变_24" x1="293.73" y1="150.63" x2="309.73" y2="150.63" gradientUnits="userSpaceOnUse"><stop offset="0.14" stop-color="#7592db"/><stop offset="0.69" stop-color="#6581d1"/><stop offset="1" stop-color="#5a75cb"/></linearGradient><linearGradient id="未命名的渐变_24-2" x1="119.5" y1="152.97" x2="174.84" y2="152.97" gradientTransform="translate(0 0)" xlink:href="#未命名的渐变_24"/><linearGradient id="未命名的渐变_64" x1="194.8" y1="208.87" x2="194.02" y2="102.44" gradientTransform="translate(0 0)" gradientUnits="userSpaceOnUse"><stop offset="0" stop-color="#d2ebff"/><stop offset="0.48" stop-color="#def"/><stop offset="1" stop-color="#e1efff"/></linearGradient><linearGradient id="未命名的渐变_73-2" x1="207.25" y1="118.17" x2="253.42" y2="137.74" xlink:href="#未命名的渐变_73"/><linearGradient id="未命名的渐变_24-3" x1="180.24" y1="102.07" x2="180.24" y2="68.14" xlink:href="#未命名的渐变_24"/><linearGradient id="未命名的渐变_73-3" x1="-9562.75" y1="446.1" x2="-9558.05" y2="446.1" gradientTransform="matrix(-0.95, -0.06, -0.06, 1, -8740.99, -832.59)" xlink:href="#未命名的渐变_73"/><linearGradient id="未命名的渐变_73-4" x1="236.48" y1="211.29" x2="236.48" y2="205.1" xlink:href="#未命名的渐变_73"/><linearGradient id="未命名的渐变_73-5" x1="236.72" y1="193.98" x2="236.72" y2="187.22" xlink:href="#未命名的渐变_73"/><linearGradient id="未命名的渐变_24-4" x1="269.44" y1="196.9" x2="269.44" y2="163.27" xlink:href="#未命名的渐变_24"/><linearGradient id="未命名的渐变_24-5" x1="245.76" y1="171.6" x2="274.52" y2="178.05" xlink:href="#未命名的渐变_24"/></defs><title>任务管理</title><g class="cls-1"><rect class="cls-2" x="187.63" y="64.67" width="42" height="96"/><rect class="cls-3" x="202.63" y="60.67" width="12" height="4"/></g><g class="cls-1"><rect class="cls-4" x="222.22" y="45" width="30" height="96"/><rect class="cls-5" x="232.93" y="41" width="8.57" height="4"/></g><g class="cls-6"><rect class="cls-7" x="244.22" y="77.04" width="20" height="96"/><rect class="cls-8" x="251.36" y="73.04" width="5.71" height="4"/></g><rect class="cls-9" x="280.77" y="58.16" width="28" height="96"/><rect class="cls-10" x="288.77" y="54.16" width="12" height="4"/><rect class="cls-11" x="285.77" y="62.36" width="18" height="3"/><rect class="cls-11" x="285.77" y="68.54" width="18" height="3"/><rect class="cls-11" x="285.77" y="74.73" width="18" height="3"/><rect class="cls-11" x="285.77" y="80.92" width="18" height="3"/><rect class="cls-11" x="285.77" y="87.1" width="18" height="3"/><rect class="cls-11" x="285.77" y="93.29" width="18" height="3"/><rect class="cls-11" x="285.77" y="99.48" width="18" height="3"/><rect class="cls-11" x="285.77" y="105.67" width="18" height="3"/><rect class="cls-11" x="285.77" y="111.85" width="18" height="3"/><rect class="cls-11" x="285.77" y="118.04" width="18" height="3"/><rect class="cls-11" x="285.77" y="124.23" width="18" height="3"/><rect class="cls-11" x="285.77" y="130.42" width="18" height="3"/><path class="cls-12" d="M301.81,153.4a19.23,19.23,0,0,0-5.18.72,29.57,29.57,0,0,0-55.38-12.53,27.18,27.18,0,1,0,15.11,41.87,29.55,29.55,0,0,0,27.24-3,19.66,19.66,0,1,0,18.21-27.07Z"/><path class="cls-13" d="M135.25,61.38A31.59,31.59,0,0,0,106,81a13,13,0,0,0-12-.61,14.59,14.59,0,1,0-5.84,18.69,13.09,13.09,0,0,0,17.38,4.81,31.59,31.59,0,1,0,29.64-42.52Z"/><rect class="cls-14" x="301.73" y="116.37" width="26.67" height="80"/><rect class="cls-11" x="305.37" y="121.75" width="4.85" height="74.62"/><rect class="cls-11" x="319.92" y="121.75" width="4.85" height="74.62"/><rect class="cls-11" x="312.64" y="121.75" width="4.85" height="74.62"/><rect class="cls-15" x="79.74" y="98.91" width="28.06" height="84.17"/><rect class="cls-11" x="83.57" y="104.57" width="5.1" height="78.52"/><rect class="cls-11" x="98.87" y="104.57" width="5.1" height="78.52"/><rect class="cls-11" x="91.22" y="104.57" width="5.1" height="78.52"/><polygon class="cls-16" points="43.2 206.74 65.2 206.74 65.2 110.74 43.2 120.74 43.2 206.74"/><polygon class="cls-11" points="57.2 194.66 61.2 194.66 61.2 118.09 57.2 120.09 57.2 194.66"/><path class="cls-17" d="M11.09,240.59c0-34.35,84.58-62.19,188.91-62.19s188.91,27.84,188.91,62.19"/><circle class="cls-18" cx="101.42" cy="139.83" r="6.61"/><path class="cls-19" d="M307.73,148.63h-4v-4a2,2,0,0,0-4,0v4h-4a2,2,0,0,0,0,4h4v4a2,2,0,0,0,4,0v-4h4a2,2,0,0,0,0-4Z"/><path class="cls-20" d="M158.5,106v90.51L174.84,213H119.5a13,13,0,0,0,13-13V106a13,13,0,0,1,26,0Z"/><path class="cls-21" d="M242.5,106v94a13,13,0,0,1-13,13h-58a13,13,0,0,1-13-13V106a13,13,0,0,0-13-13h84a13,13,0,0,1,13,13Z"/><path class="cls-22" d="M106.5,193v7a13,13,0,1,0,26,0v-7Z"/><rect class="cls-23" x="187.2" y="170.58" width="42" height="4"/><rect class="cls-23" x="187.2" y="154.63" width="42" height="4"/><rect class="cls-23" x="187.2" y="138.67" width="15.5" height="4"/><path class="cls-11" d="M175.2,169.58a3,3,0,1,1-3,3,3,3,0,0,1,3-3m0-3a6,6,0,1,0,6,6,6,6,0,0,0-6-6Z"/><path class="cls-11" d="M175.2,153.63a3,3,0,1,1-3,3,3,3,0,0,1,3-3m0-3a6,6,0,1,0,6,6,6,6,0,0,0-6-6Z"/><path class="cls-11" d="M175.2,137.67a3,3,0,1,1-3,3,3,3,0,0,1,3-3m0-3a6,6,0,1,0,6,6,6,6,0,0,0-6-6Z"/><rect class="cls-23" x="187.2" y="122.2" width="15.5" height="4"/><path class="cls-11" d="M175.2,121.2a3,3,0,1,1-3,3,3,3,0,0,1,3-3m0-3a6,6,0,1,0,6,6,6,6,0,0,0-6-6Z"/><path class="cls-24" d="M256.38,150.05V118.62a4.87,4.87,0,0,0-4.87-4.86H216.34a4.86,4.86,0,0,0-4.86,4.86v21.7a4.87,4.87,0,0,0,4.86,4.87h35.17a4.87,4.87,0,0,1,4.87,4.86Z"/><path class="cls-22" d="M242.53,154.92h9a4.87,4.87,0,1,0,0-9.73h-9Z"/><polyline class="cls-25" points="223.35 128.61 230.8 136.06 243.07 123.78"/><circle class="cls-26" cx="180.24" cy="85.1" r="16.96"/><polyline class="cls-25" points="179.5 77.2 179.63 86.59 187.38 93.17"/><polyline class="cls-27" points="249.45 193.99 268.92 193.99 277.14 176.01"/><polygon class="cls-22" points="250.92 193.99 250.92 212.97 252.36 212.97 254.31 193.99 250.92 193.99"/><polygon class="cls-22" points="268.09 193.99 268.09 212.97 266.66 212.97 264.7 193.99 268.09 193.99"/><path class="cls-28" d="M246.55,164.36H247a0,0,0,0,1,0,0v13.39a0,0,0,0,1,0,0h-.45a1,1,0,0,1-1-1V165.34A1,1,0,0,1,246.55,164.36Z"/><path class="cls-28" d="M245.57,178.88h15.78a0,0,0,0,1,0,0v.79a.78.78,0,0,1-.78.78H246.35a.78.78,0,0,1-.78-.78v-.79A0,0,0,0,1,245.57,178.88Z" transform="translate(66.49 -68.46) rotate(17.67)"/><path class="cls-29" d="M273.46,166.51s2.09-2.51,1.76-4.7a3.76,3.76,0,0,0-3.53-2.12,3.07,3.07,0,0,0-2,2.13,6.14,6.14,0,0,1-.81,1.22c-.32.28.67.31.67.31a2.48,2.48,0,0,0,.36,2.18,2.73,2.73,0,0,0,.93.76l0,1.4,2.61.34-.06-1.52Z"/><path class="cls-28" d="M269.79,160.15s-.44.7,1.22,1.11,1.84.57,2,1.2a1.46,1.46,0,0,1-.14,1l-.43.63s.88-.58,1.11-.35-.15.94-.69,1.1.19,1.89.19,1.89l1.28-.05s2.66-2.31,2.5-4.52-1-3.83-4.53-4A2,2,0,0,0,269.79,160.15Z"/><path class="cls-30" d="M274,167.31l.06,1.45-4.45-.27.81-1.65A5.05,5.05,0,0,0,274,167.31Z"/><path class="cls-31" d="M232.5,210.15h8.83v-3.32l-2.68-.85a8.39,8.39,0,0,1-3.65,2.08,5.65,5.65,0,0,1-2.5,0S230.52,209,232.5,210.15Z"/><path class="cls-32" d="M232.53,190.72s-.53,1.95,3.39,2,5-2.61,5-2.61l-1.83-2A20.15,20.15,0,0,0,232.53,190.72Z"/><path class="cls-33" d="M237.35,206.11a4.19,4.19,0,0,0,4.18,1.37L248,192.74l19.15-.12-1.21-5.75-19.67,1s-2.64.67-3.42,2.83S237.35,206.11,237.35,206.11Z"/><path class="cls-34" d="M269.11,168.41s-7.24,9.13-7.24,15.46c0,0,6.46,6.19,7.9,6.85,0,0,7-13.18,7.23-18.2,0,0-1-4.17-2.8-4.5Z"/><path class="cls-35" d="M261.87,179l9.13,1.5V173s.2-2.48,2.35-2.61,3,.85,3.26,2.09-1.37,11.68-1.37,11.68-.19,1.56-4.76.52a44,44,0,0,1-8.61-3.07Z"/><path class="cls-28" d="M238.72,187.85s-.72,2.15,2.55,2.87c0,0,8.93-5.09,10.56-5.94,0,0,11.15,7.57,13.24,7.89s4.89-.57,5.09-2.7-7.31-6.1-7.31-6.1l-10.3-3.65a3,3,0,0,0-3,0C248.05,181.13,238.72,187.85,238.72,187.85Z"/><path class="cls-29" d="M256.33,178.52s2.74-1.82,6.13.85l-.19,2.09Z"/></svg>