<svg id="图层_1" data-name="图层 1" xmlns="http://www.w3.org/2000/svg" xmlns:xlink="http://www.w3.org/1999/xlink" viewBox="0 0 400 300"><defs><style>.cls-1{fill:url(#未命名的渐变_19);}.cls-2{opacity:0.5;}.cls-3{fill:url(#未命名的渐变_19-2);}.cls-4{fill:url(#未命名的渐变_19-3);}.cls-5{fill:url(#未命名的渐变_19-4);}.cls-6{fill:url(#未命名的渐变_19-5);}.cls-7{opacity:0.7;}.cls-8{fill:url(#未命名的渐变_19-6);}.cls-9{fill:url(#未命名的渐变_19-7);}.cls-10{fill:url(#未命名的渐变_19-8);}.cls-11{fill:#fff;}.cls-12{fill:url(#未命名的渐变_19-9);}.cls-13{fill:url(#未命名的渐变_19-10);}.cls-14{fill:url(#未命名的渐变_19-11);}.cls-15{fill:url(#未命名的渐变_20);}.cls-16{fill:url(#未命名的渐变_19-12);}.cls-17{fill:url(#未命名的渐变_67);}.cls-18,.cls-36{fill:none;stroke-miterlimit:10;}.cls-18{stroke-width:4px;stroke:url(#未命名的渐变_73);}.cls-19{fill:url(#未命名的渐变_24);}.cls-20{fill:url(#未命名的渐变_24-2);}.cls-21{fill:url(#未命名的渐变_64);}.cls-22{fill:#343999;}.cls-23{fill:url(#未命名的渐变_31);}.cls-24{fill:url(#未命名的渐变_73-2);}.cls-25{fill:url(#未命名的渐变_73-3);}.cls-26{fill:url(#未命名的渐变_73-4);}.cls-27{fill:url(#未命名的渐变_73-5);}.cls-28{fill:url(#未命名的渐变_24-3);}.cls-29{fill:url(#未命名的渐变_73-6);}.cls-30{fill:#f8c2be;}.cls-31{fill:#05081e;}.cls-32{fill:#070b33;}.cls-33{fill:url(#未命名的渐变_73-7);}.cls-34{fill:url(#未命名的渐变_31-2);}.cls-35{fill:url(#未命名的渐变_31-3);}.cls-36{stroke:#b3c6ed;stroke-linecap:round;stroke-dasharray:2 0 0;fill-rule:evenodd;}</style><linearGradient id="未命名的渐变_19" x1="-8789.39" y1="90.59" x2="-8789.39" y2="62.01" gradientTransform="matrix(-1, 0, 0, 1, -8602.32, 0)" gradientUnits="userSpaceOnUse"><stop offset="0" stop-color="#fff"/><stop offset="0.88" stop-color="#eeeff3"/><stop offset="1" stop-color="#ebecf1"/></linearGradient><linearGradient id="未命名的渐变_19-2" x1="-8685.52" y1="197.61" x2="-8685.52" y2="101.61" gradientTransform="matrix(1, 0, 0, -1, 8783.32, 299.23)" xlink:href="#未命名的渐变_19"/><linearGradient id="未命名的渐变_19-3" x1="-8685.52" y1="101.61" x2="-8685.52" y2="97.61" gradientTransform="matrix(1, 0, 0, -1, 8783.32, 199.23)" xlink:href="#未命名的渐变_19"/><linearGradient id="未命名的渐变_19-4" x1="-8656.93" y1="177.94" x2="-8656.93" y2="81.94" gradientTransform="matrix(1, 0, 0, -1, 8726.14, 259.88)" xlink:href="#未命名的渐变_19"/><linearGradient id="未命名的渐变_19-5" x1="-8656.93" y1="81.94" x2="-8656.93" y2="77.94" gradientTransform="matrix(1, 0, 0, -1, 8726.14, 159.88)" xlink:href="#未命名的渐变_19"/><linearGradient id="未命名的渐变_19-6" x1="-8639.93" y1="209.99" x2="-8639.93" y2="113.99" gradientTransform="matrix(1, 0, 0, -1, 8692.14, 323.97)" xlink:href="#未命名的渐变_19"/><linearGradient id="未命名的渐变_19-7" x1="-8639.93" y1="113.99" x2="-8639.93" y2="109.99" gradientTransform="matrix(1, 0, 0, -1, 8692.14, 223.97)" xlink:href="#未命名的渐变_19"/><linearGradient id="未命名的渐变_19-8" x1="78.55" y1="197.75" x2="78.55" y2="131.75" gradientTransform="matrix(1, 0, 0, 1, 0, 0)" xlink:href="#未命名的渐变_19"/><linearGradient id="未命名的渐变_19-9" x1="293.35" y1="189.46" x2="293.35" y2="93.46" gradientTransform="matrix(1, 0, 0, 1, 0, 0)" xlink:href="#未命名的渐变_19"/><linearGradient id="未命名的渐变_19-10" x1="293.35" y1="93.46" x2="293.35" y2="89.46" gradientTransform="matrix(1, 0, 0, 1, 0, 0)" xlink:href="#未命名的渐变_19"/><linearGradient id="未命名的渐变_19-11" x1="257.26" y1="191.01" x2="257.26" y2="54.97" gradientTransform="matrix(1, 0, 0, 1, 0, 0)" xlink:href="#未命名的渐变_19"/><linearGradient id="未命名的渐变_20" x1="270.02" y1="200.42" x2="270.02" y2="131.77" gradientUnits="userSpaceOnUse"><stop offset="0.25" stop-color="#fff"/><stop offset="0.91" stop-color="#eeeff3"/><stop offset="1" stop-color="#ebecf1"/></linearGradient><linearGradient id="未命名的渐变_19-12" x1="142.65" y1="182.41" x2="142.65" y2="53.02" gradientTransform="matrix(1, 0, 0, 1, 0, 0)" xlink:href="#未命名的渐变_19"/><linearGradient id="未命名的渐变_67" x1="200" y1="257.52" x2="200" y2="165.38" gradientUnits="userSpaceOnUse"><stop offset="0.31" stop-color="#fff"/><stop offset="0.92" stop-color="#eeeff3"/><stop offset="1" stop-color="#ebecf1"/></linearGradient><linearGradient id="未命名的渐变_73" x1="88.93" y1="163.05" x2="106.16" y2="163.05" gradientUnits="userSpaceOnUse"><stop offset="0" stop-color="#f7b8a4"/><stop offset="0" stop-color="#f7b7a3"/><stop offset="0.09" stop-color="#f9a68d"/><stop offset="0.19" stop-color="#fa987c"/><stop offset="0.32" stop-color="#fa8f71"/><stop offset="0.5" stop-color="#fb896a"/><stop offset="1" stop-color="#fb8868"/></linearGradient><linearGradient id="未命名的渐变_24" x1="273.92" y1="140.96" x2="289.92" y2="140.96" gradientUnits="userSpaceOnUse"><stop offset="0.14" stop-color="#7592db"/><stop offset="0.69" stop-color="#6581d1"/><stop offset="1" stop-color="#5a75cb"/></linearGradient><linearGradient id="未命名的渐变_24-2" x1="109.5" y1="117.97" x2="148.5" y2="117.97" gradientTransform="translate(2)" xlink:href="#未命名的渐变_24"/><linearGradient id="未命名的渐变_64" x1="177.7" y1="190.79" x2="190.28" y2="115.29" gradientTransform="translate(2)" gradientUnits="userSpaceOnUse"><stop offset="0" stop-color="#d2ebff"/><stop offset="0.48" stop-color="#def"/><stop offset="1" stop-color="#e1efff"/></linearGradient><linearGradient id="未命名的渐变_31" x1="129.06" y1="168.78" x2="246.97" y2="206.3" gradientUnits="userSpaceOnUse"><stop offset="0" stop-color="#5a75cb"/><stop offset="0.92" stop-color="#7592db"/></linearGradient><linearGradient id="未命名的渐变_73-2" x1="161.5" y1="135.71" x2="223.76" y2="135.71" xlink:href="#未命名的渐变_73"/><linearGradient id="未命名的渐变_73-3" x1="264.13" y1="186.24" x2="256.76" y2="186.73" xlink:href="#未命名的渐变_73"/><linearGradient id="未命名的渐变_73-4" x1="255.17" y1="211.23" x2="245.26" y2="211.63" xlink:href="#未命名的渐变_73"/><linearGradient id="未命名的渐变_73-5" x1="266.21" y1="211.2" x2="276.9" y2="211.2" xlink:href="#未命名的渐变_73"/><linearGradient id="未命名的渐变_24-3" x1="261.18" y1="187.26" x2="261.18" y2="196.85" xlink:href="#未命名的渐变_24"/><linearGradient id="未命名的渐变_73-6" x1="250.25" y1="200.39" x2="270.33" y2="200.39" xlink:href="#未命名的渐变_73"/><linearGradient id="未命名的渐变_73-7" x1="257.53" y1="187.09" x2="263.46" y2="187.09" xlink:href="#未命名的渐变_73"/><linearGradient id="未命名的渐变_31-2" x1="274.73" y1="67.8" x2="301.11" y2="67.8" xlink:href="#未命名的渐变_31"/><linearGradient id="未命名的渐变_31-3" x1="284.22" y1="71.94" x2="301.11" y2="71.94" xlink:href="#未命名的渐变_31"/></defs><title>内容为空</title><path class="cls-1" d="M170.1,60.79a28.67,28.67,0,0,1,26.54,17.82,11.77,11.77,0,0,1,10.84-.56,13.24,13.24,0,1,1,5.3,17A11.85,11.85,0,0,1,197,99.38a28.67,28.67,0,1,1-26.9-38.59Z"/><g class="cls-2"><rect class="cls-3" x="76.8" y="101.61" width="42" height="96" transform="translate(195.59 299.23) rotate(-180)"/><rect class="cls-4" x="91.8" y="97.61" width="12" height="4" transform="translate(195.59 199.23) rotate(-180)"/></g><g class="cls-2"><rect class="cls-5" x="54.21" y="81.94" width="30" height="96" transform="translate(138.42 259.88) rotate(-180)"/><rect class="cls-6" x="64.92" y="77.94" width="8.57" height="4" transform="translate(138.42 159.88) rotate(-180)"/></g><g class="cls-7"><rect class="cls-8" x="42.2" y="113.99" width="20" height="96" transform="translate(104.41 323.97) rotate(-180)"/><rect class="cls-9" x="49.35" y="109.99" width="5.71" height="4" transform="translate(104.41 223.97) rotate(-180)"/></g><rect class="cls-10" x="67.55" y="131.75" width="22" height="66"/><rect class="cls-11" x="70.55" y="136.18" width="4" height="61.57"/><rect class="cls-11" x="82.55" y="136.18" width="4" height="61.57"/><rect class="cls-11" x="76.55" y="136.18" width="4" height="61.57"/><rect class="cls-12" x="279.35" y="93.46" width="28" height="96"/><rect class="cls-13" x="287.35" y="89.46" width="12" height="4"/><rect class="cls-11" x="284.35" y="97.65" width="18" height="3"/><rect class="cls-11" x="284.35" y="103.84" width="18" height="3"/><rect class="cls-11" x="284.35" y="110.03" width="18" height="3"/><rect class="cls-11" x="284.35" y="116.21" width="18" height="3"/><rect class="cls-11" x="284.35" y="122.4" width="18" height="3"/><rect class="cls-11" x="284.35" y="128.59" width="18" height="3"/><rect class="cls-11" x="284.35" y="134.78" width="18" height="3"/><rect class="cls-11" x="284.35" y="140.96" width="18" height="3"/><rect class="cls-11" x="284.35" y="147.15" width="18" height="3"/><rect class="cls-11" x="284.35" y="153.34" width="18" height="3"/><rect class="cls-11" x="284.35" y="159.53" width="18" height="3"/><rect class="cls-11" x="284.35" y="165.71" width="18" height="3"/><polygon class="cls-14" points="272.85 191.01 241.68 191.01 241.68 54.97 272.85 69.14 272.85 191.01"/><polygon class="cls-11" points="253.01 173.89 247.34 173.89 247.34 65.38 253.01 68.22 253.01 173.89"/><path class="cls-15" d="M307.61,158.83a19.63,19.63,0,0,0-5.18.71A29.57,29.57,0,0,0,247,147a27.17,27.17,0,1,0,15.12,41.87,29.55,29.55,0,0,0,27.24-3,19.66,19.66,0,1,0,18.21-27.07Z"/><rect class="cls-16" x="121.09" y="53.02" width="43.13" height="129.4"/><rect class="cls-11" x="126.97" y="61.71" width="7.84" height="120.7"/><rect class="cls-11" x="150.5" y="61.71" width="7.84" height="120.7"/><rect class="cls-11" x="138.73" y="61.71" width="7.84" height="120.7"/><path class="cls-17" d="M11.09,240.59c0-34.35,84.58-62.19,188.91-62.19s188.91,27.84,188.91,62.19"/><circle class="cls-18" cx="97.55" cy="163.05" r="6.61"/><path class="cls-19" d="M287.92,139h-4v-4a2,2,0,1,0-4,0v4h-4a2,2,0,0,0,0,4h4v4a2,2,0,0,0,4,0v-4h4a2,2,0,0,0,0-4Z"/><path class="cls-20" d="M150.5,106v37h-39a13,13,0,0,0,13-13V106a13,13,0,0,1,26,0Z"/><path class="cls-21" d="M234.5,106V213h-71a13,13,0,0,1-13-13V106a13,13,0,0,0-13-13h84a13,13,0,0,1,13,13Z"/><path class="cls-22" d="M98.5,123v7a13,13,0,0,0,26,0v-7Z"/><path class="cls-23" d="M237,213.39H148.14a10,10,0,0,1-10-10V167.27h20l10,10H217l10-10h20v36.12A10,10,0,0,1,237,213.39Z"/><polygon class="cls-22" points="150.5 152.97 138.13 167.27 150.5 167.27 150.5 152.97"/><polygon class="cls-22" points="234.63 152.97 247 167.27 234.63 167.27 234.63 152.97"/><rect class="cls-11" x="161.5" y="110.02" width="62.26" height="51.38"/><path class="cls-24" d="M223.76,110h-3v3h0v.35h3V110Zm-3.06,0h0v3h0v-3Zm-3,0h-.06v3h.06v-3Zm-.11,0h-3v3h3v-3Zm-3.06,0h0v3h0v-3Zm-3,0h-.06v3h.06v-3Zm-.11,0h-3v3h3v-3Zm-3.06,0h0v3h0v-3Zm-3,0h-.06v3h.06v-3Zm-.11,0h-3v3h3v-3ZM202,110h0v3h0v-3Zm-3,0h-.06v3H199v-3Zm-.11,0h-3v3h3v-3Zm-3.06,0h0v3h0v-3Zm-3,0h-.06v3h.06v-3Zm-.11,0h-3v3h3v-3Zm-3.06,0h0v3h0v-3Zm-3,0h-.06v3h.06v-3Zm-.11,0h-3v3h3v-3Zm-3.06,0h0v3h0v-3Zm-3,0h-.06v3h.06v-3Zm-.11,0h-3v3h3v-3Zm-3.06,0h0v3h0v-3Zm-3,0h-.06v3h.06v-3Zm-.11,0h-3v3h3v-3Zm-3.06,0h-.05v3h.05v-3Zm-3.05,0h-.06v3h.06v-3Zm-.11,0h-3v3h3v-3Zm-3.06,0h-.05v3h.05v-3Zm-.22,0h-3v3h0v0h3v0h-2.83V113h2.83V110ZM161.56,113h.05V113h-.05V113Zm2.94,3.11h-3v.06h3v-.06Zm0,.11h-3v3h3v-3Zm0,3.06h-3v.05h3v-.05Zm0,3.05h-3v.06h3v-.06Zm0,.11h-3v3h3v-3Zm0,3.06h-3v.05h3v-.05Zm0,3h-3v.06h3v-.06Zm0,.11h-3v3h3v-3Zm0,3.06h-3v0h3v0Zm0,3h-3v.06h3v-.06Zm0,.11h-3v3h3v-3Zm0,3.06h-3v0h3v0Zm0,3h-3V141h3V141Zm0,.11h-3v3h3v-3Zm0,3.06h-3v0h3v0Zm0,3h-3v.06h3v-.06Zm0,.11h-3v3h3v-3Zm0,3.06h-3v0h3v0Zm0,3h-3v.06h3v-.06Zm0,.11h-3v3h3v-3Zm0,3.06h-3v.05h3v-.05Zm-1.57,1.84h-.05v1.21h-.06V158.4H161.5v1.21h0v0h0v.06h0v.05h0v1.68h3v-1.68h-1.57v-.05h1.57v-.06h-1.57V158.4Zm-.11,1.27h.06v.05h-.06v-.05Zm-1.32,0v.05h0v-.05ZM166,158.4h-.06v3H166v-3Zm3,0h-3v3h3v-3Zm.11,0h-.05v3h.05v-3Zm3.06,0h-.06v3h.06v-3Zm3,0h-3v3h3v-3Zm.11,0h-.05v3h.05v-3Zm3.06,0h-.06v3h.06v-3Zm3,0h-3v3h3v-3Zm.11,0h-.05v3h.05v-3Zm3.06,0h-.06v3h.06v-3Zm3,0h-3v3h3v-3Zm.11,0h-.05v3h.05v-3Zm3.06,0h-.06v3h.06v-3Zm3,0h-3v3h3v-3Zm.11,0H194v3H194v-3Zm3.06,0H197v3h.06v-3Zm3,0h-3v3h3v-3Zm.11,0h-.05v3h.05v-3Zm3.06,0h-.06v3h.06v-3Zm3.05,0h-3v3h3v-3Zm.11,0h-.05v3h.05v-3Zm3.06,0h-.06v3h.06v-3Zm3.05,0h-3v3h3v-3Zm.11,0h-.05v3h.05v-3Zm3.06,0h-.06v3h.06v-3Zm3.05,0h-3v3h3v-3Zm.11,0h0v3h0v-3Zm4.85,0H222V160H222V158.4h-.06V160h-1.15v.06h1.15v0h-1.15v1.27h3v-3ZM222,160.08H222v0H222v0Zm0,1.32h0Zm1.79-4.43h-3V157h3V157Zm0-3.06h-3v3h3v-3Zm0-.11h-3v.06h3v-.06Zm0-3.05h-3v.05h3v-.05Zm0-3.06h-3v3h3v-3Zm0-.11h-3v.06h3v-.06Zm0-3.05h-3v.05h3v-.05Zm0-3.06h-3v3h3v-3Zm0-.11h-3v.06h3v-.06Zm0-3.05h-3v.05h3v-.05Zm0-3.06h-3v3h3v-3Zm0-.11h-3v.06h3v-.06Zm0-3h-3v0h3v0Zm0-3.06h-3v3h3v-3Zm0-.11h-3V129h3v-.06Zm0-3h-3v0h3v0Zm0-3.06h-3v3h3v-3Zm0-.11h-3v.06h3v-.06Zm0-3h-3v0h3v0Zm0-3.06h-3v3h3v-3Zm0-.11h-3v.06h3v-.06Zm0-3h-3v0h3v0Z"/><path class="cls-25" d="M257.76,185.75l-.2,1.44h6l-1-1.7A9,9,0,0,1,257.76,185.75Z"/><path class="cls-26" d="M246.41,210.37s-1.82,1.11.33,2.32,7.32.6,8.93,0v-3S249.48,208.73,246.41,210.37Z"/><path class="cls-27" d="M266.21,212.37a23.12,23.12,0,0,0,8.31.32c5-.61.53-2.89.53-2.89s-2.61-.66-8.61,0Z"/><path class="cls-28" d="M257.62,186.32a7.94,7.94,0,0,0-4.57.78,10.79,10.79,0,0,0-4.5,7.24,31.62,31.62,0,0,0,0,5.35s1.84,2.8,4.48,3.39c0,0-1-5.81-.37-7.83a3.23,3.23,0,0,1,2.41-2.28l.26,10.7h11v-9.91s2.28-.46,2.93,2.93l-.52,5.74s4.56,1.43,5.15-5.55c0,0-.78-5.21-3.78-7.82s-6.33-3.26-7.17-2.8c-1.05,2.42-2.72,1.38-4.11,1.3C258.13,187.52,257.62,186.32,257.62,186.32Z"/><polygon class="cls-29" points="250.25 194.89 252.34 205.88 268.51 205.88 270.33 194.89 250.25 194.89"/><path class="cls-30" d="M251.57,210.71s-.73,1.42,3.52,1.24,0-1.63,0-1.63S252.81,209.54,251.57,210.71Z"/><path class="cls-31" d="M254,208.43s.07,3.58.68,3.91,16.56-2.61,20.71-3.91,2.91-4,2.85-4.76-1.09-2.81-5.91-2a25.18,25.18,0,0,0-5.6,1.21Q260.33,205.67,254,208.43Z"/><path class="cls-30" d="M269.24,212s.91.38.46-1.38c0,0,.43-.47-2.94,0l-.55,1A8,8,0,0,0,269.24,212Z"/><path class="cls-32" d="M267.41,208.75s-.06,3.59-.65,3.92-15.91-2.61-19.89-3.92-2.8-4-2.74-4.76,1.05-2.8,5.68-2a25.68,25.68,0,0,1,6.52,1.7c1.48.69,3,1.34,4.46,2Z"/><path class="cls-30" d="M258,176.75s-4.26,6.55.53,8.7,5.53-5.47,5.48-6.06S263,173.72,258,176.75Z"/><path class="cls-31" d="M262.09,175s-1.36-2.46-5.43.24c-1,.69-1.81,6.1-.11,8.31a5.51,5.51,0,0,1-.1-3.2,4.06,4.06,0,0,1,3-3,4.71,4.71,0,0,0,3.05,2.79l1.39.45a8.87,8.87,0,0,1-1.91,4.5,7.27,7.27,0,0,0,2.8-3.19s1.67-3.47.74-5.38S262.09,175,262.09,175Z"/><path class="cls-30" d="M259,184a5.58,5.58,0,0,1-.44,4.1,5.45,5.45,0,0,0,2.11.13,7.09,7.09,0,0,0,2.15-.08s-1.42-2.54-1.32-4.15Z"/><path class="cls-33" d="M257.76,185.75l-.22,1.37a1.36,1.36,0,0,0,1.37,1.56l3.24-.08a1.35,1.35,0,0,0,1.12-2l-.63-1.08C262.81,185.39,261.91,190.39,257.76,185.75Z"/><polygon class="cls-34" points="274.73 68.12 301.11 62.52 281.64 73.08 274.73 68.12"/><polygon class="cls-22" points="281.84 81.98 301.11 62.52 281.64 73.08 281.84 81.98"/><polygon class="cls-35" points="293.76 81.36 284.22 74.51 301.11 62.52 293.76 81.36"/><path class="cls-36" d="M245.52,113.33c7.82-2.69,17.74-7.26,21.16-15.44a5.78,5.78,0,0,0,.4-3.68,5.11,5.11,0,0,0-2.33-3c-4.08-2.47-14.13-.43-11.82,6a6.72,6.72,0,0,0,4.82,4c4.56,1.08,9.49-1.86,12.9-4.68a32.09,32.09,0,0,0,8.07-9.46"/></svg>