<?xml version="1.0" encoding="utf-8"?>
<!-- Generator: Adobe Illustrator 23.0.1, SVG Export Plug-In . SVG Version: 6.00 Build 0)  -->
<svg version="1.1" id="图层_1" xmlns="http://www.w3.org/2000/svg" xmlns:xlink="http://www.w3.org/1999/xlink" x="0px" y="0px"
	 viewBox="0 0 400 300" style="enable-background:new 0 0 400 300;" xml:space="preserve">
<style type="text/css">
	.st0{fill:url(#SVGID_1_);}
	.st1{clip-path:url(#SVGID_3_);}
	.st2{fill:url(#SVGID_4_);}
	.st3{fill:url(#SVGID_5_);}
	.st4{fill:#FFD34D;}
	.st5{clip-path:url(#SVGID_7_);}
	.st6{fill:#424242;}
	.st7{clip-path:url(#SVGID_9_);}
	.st8{fill:url(#SVGID_10_);}
	.st9{fill:url(#SVGID_11_);}
	.st10{fill:url(#SVGID_12_);}
	.st11{fill:url(#SVGID_13_);}
	.st12{fill:url(#SVGID_14_);}
	.st13{fill:url(#SVGID_15_);}
	.st14{fill:url(#SVGID_16_);}
	.st15{fill:url(#SVGID_17_);}
	.st16{fill:#FFFFFF;}
	.st17{fill:url(#SVGID_18_);}
	.st18{clip-path:url(#SVGID_20_);}
	.st19{fill:url(#SVGID_21_);}
	.st20{fill:url(#SVGID_22_);}
	.st21{clip-path:url(#SVGID_24_);}
	.st22{clip-path:url(#SVGID_26_);}
	.st23{fill:url(#SVGID_27_);}
	.st24{fill:url(#SVGID_28_);}
	.st25{fill:url(#SVGID_29_);}
	.st26{fill:url(#SVGID_30_);}
	.st27{fill:url(#SVGID_31_);}
	.st28{fill:url(#SVGID_32_);}
	.st29{fill:url(#SVGID_33_);}
	.st30{fill:url(#SVGID_34_);}
</style>
<g>
	<linearGradient id="SVGID_1_" gradientUnits="userSpaceOnUse" x1="202.9074" y1="247.2792" x2="202.1248" y2="27.3662">
		<stop  offset="0.3072" style="stop-color:#FFFFFF"/>
		<stop  offset="0.8722" style="stop-color:#EEEEF2"/>
		<stop  offset="1" style="stop-color:#E9EAEF"/>
	</linearGradient>
	<circle class="st0" cx="202.6" cy="147.3" r="89.2"/>
	<g>
		<defs>
			<circle id="SVGID_2_" cx="202.6" cy="147.3" r="89.2"/>
		</defs>
		<clipPath id="SVGID_3_">
			<use xlink:href="#SVGID_2_"  style="overflow:visible;"/>
		</clipPath>
		<g class="st1">
			<g>
				<linearGradient id="SVGID_4_" gradientUnits="userSpaceOnUse" x1="151.0129" y1="243.4074" x2="150.4499" y2="85.2252">
					<stop  offset="0.1415" style="stop-color:#7590D9"/>
					<stop  offset="0.7291" style="stop-color:#647FCF"/>
					<stop  offset="1" style="stop-color:#5A75C9"/>
				</linearGradient>
				<path class="st2" d="M150.8,235.7L150.8,235.7c-4.5,0-8.2-3.7-8.2-8.2V115.5c0-4.5,3.7-8.2,8.2-8.2h0c4.5,0,8.2,3.7,8.2,8.2
					v111.9C159,232,155.3,235.7,150.8,235.7z"/>
				<linearGradient id="SVGID_5_" gradientUnits="userSpaceOnUse" x1="257.6296" y1="243.4074" x2="257.0667" y2="85.2252">
					<stop  offset="0.1415" style="stop-color:#7590D9"/>
					<stop  offset="0.7291" style="stop-color:#647FCF"/>
					<stop  offset="1" style="stop-color:#5A75C9"/>
				</linearGradient>
				<path class="st3" d="M257.4,235.7L257.4,235.7c-4.5,0-8.2-3.7-8.2-8.2V115.5c0-4.5,3.7-8.2,8.2-8.2l0,0c4.5,0,8.2,3.7,8.2,8.2
					v111.9C265.6,232,261.9,235.7,257.4,235.7z"/>
			</g>
			<g>
				<path class="st4" d="M267.7,170.7H137.4c-2.1,0-3.8-1.7-3.8-3.8v-12c0-2.1,1.7-3.8,3.8-3.8h130.3c2.1,0,3.8,1.7,3.8,3.8v12
					C271.5,169,269.8,170.7,267.7,170.7z"/>
				<g>
					<g>
						<defs>
							<path id="SVGID_6_" d="M141.5,167.7c-1.9,0-3.4-1.5-3.4-3.4v-6.7c0-1.9,1.5-3.4,3.4-3.4h125c1.9,0,3.4,1.5,3.4,3.4v6.7
								c0,1.9-1.5,3.4-3.4,3.4H141.5z"/>
						</defs>
						<use xlink:href="#SVGID_6_"  style="overflow:visible;fill:#F2BA49;"/>
						<clipPath id="SVGID_7_">
							<use xlink:href="#SVGID_6_"  style="overflow:visible;"/>
						</clipPath>
						<g class="st5">
							
								<rect x="105.7" y="130.5" transform="matrix(0.5 -0.866 0.866 0.5 -35.1442 207.9933)" class="st6" width="113.6" height="7.9"/>
							
								<rect x="122.6" y="140.2" transform="matrix(0.5 -0.866 0.866 0.5 -35.1442 227.4773)" class="st6" width="113.6" height="7.9"/>
							
								<rect x="139.5" y="149.9" transform="matrix(0.5 -0.866 0.866 0.5 -35.1442 246.9614)" class="st6" width="113.6" height="7.9"/>
							
								<rect x="156.4" y="159.7" transform="matrix(0.5 -0.866 0.866 0.5 -35.1442 266.4455)" class="st6" width="113.6" height="7.9"/>
							
								<rect x="173.2" y="169.4" transform="matrix(0.5 -0.866 0.866 0.5 -35.1442 285.9296)" class="st6" width="113.6" height="7.9"/>
							
								<rect x="190.1" y="179.2" transform="matrix(0.5 -0.866 0.866 0.5 -35.1442 305.4137)" class="st6" width="113.6" height="7.9"/>
						</g>
					</g>
				</g>
			</g>
			<g>
				<path class="st4" d="M267.7,141.7H137.4c-2.1,0-3.8-1.7-3.8-3.8v-12c0-2.1,1.7-3.8,3.8-3.8h130.3c2.1,0,3.8,1.7,3.8,3.8v12
					C271.5,140,269.8,141.7,267.7,141.7z"/>
				<g>
					<g>
						<defs>
							<path id="SVGID_8_" d="M141.5,138.7c-1.9,0-3.4-1.5-3.4-3.4v-6.7c0-1.9,1.5-3.4,3.4-3.4h125c1.9,0,3.4,1.5,3.4,3.4v6.7
								c0,1.9-1.5,3.4-3.4,3.4H141.5z"/>
						</defs>
						<use xlink:href="#SVGID_8_"  style="overflow:visible;fill:#F2BA49;"/>
						<clipPath id="SVGID_9_">
							<use xlink:href="#SVGID_8_"  style="overflow:visible;"/>
						</clipPath>
						<g class="st7">
							
								<rect x="105.7" y="101.5" transform="matrix(0.5 -0.866 0.866 0.5 -10.0932 193.5301)" class="st6" width="113.6" height="7.9"/>
							
								<rect x="122.6" y="111.3" transform="matrix(0.5 -0.866 0.866 0.5 -10.0932 213.0142)" class="st6" width="113.6" height="7.9"/>
							
								<rect x="139.5" y="121" transform="matrix(0.5 -0.866 0.866 0.5 -10.0932 232.4982)" class="st6" width="113.6" height="7.9"/>
							
								<rect x="156.4" y="130.8" transform="matrix(0.5 -0.866 0.866 0.5 -10.0932 251.9823)" class="st6" width="113.6" height="7.9"/>
							
								<rect x="173.2" y="140.5" transform="matrix(0.5 -0.866 0.866 0.5 -10.0932 271.4664)" class="st6" width="113.6" height="7.9"/>
							
								<rect x="190.1" y="150.2" transform="matrix(0.5 -0.866 0.866 0.5 -10.0932 290.9505)" class="st6" width="113.6" height="7.9"/>
						</g>
					</g>
				</g>
			</g>
		</g>
	</g>
	<g>
		<linearGradient id="SVGID_10_" gradientUnits="userSpaceOnUse" x1="252.4431" y1="75.9082" x2="277.701" y2="75.9082">
			<stop  offset="0" style="stop-color:#F5B6A2"/>
			<stop  offset="8.526373e-02" style="stop-color:#F6A58D"/>
			<stop  offset="0.1887" style="stop-color:#F8977C"/>
			<stop  offset="0.3176" style="stop-color:#F88D71"/>
			<stop  offset="0.4983" style="stop-color:#F9886A"/>
			<stop  offset="1" style="stop-color:#F98668"/>
		</linearGradient>
		<circle class="st8" cx="265.1" cy="75.9" r="12.6"/>
		<linearGradient id="SVGID_11_" gradientUnits="userSpaceOnUse" x1="115.7475" y1="198.3951" x2="133.7664" y2="198.3951">
			<stop  offset="0" style="stop-color:#F5B6A2"/>
			<stop  offset="8.526373e-02" style="stop-color:#F6A58D"/>
			<stop  offset="0.1887" style="stop-color:#F8977C"/>
			<stop  offset="0.3176" style="stop-color:#F88D71"/>
			<stop  offset="0.4983" style="stop-color:#F9886A"/>
			<stop  offset="1" style="stop-color:#F98668"/>
		</linearGradient>
		<circle class="st9" cx="124.8" cy="198.4" r="9"/>
		<linearGradient id="SVGID_12_" gradientUnits="userSpaceOnUse" x1="103.9003" y1="85.4495" x2="115.7475" y2="85.4495">
			<stop  offset="0" style="stop-color:#F5B6A2"/>
			<stop  offset="8.526373e-02" style="stop-color:#F6A58D"/>
			<stop  offset="0.1887" style="stop-color:#F8977C"/>
			<stop  offset="0.3176" style="stop-color:#F88D71"/>
			<stop  offset="0.4983" style="stop-color:#F9886A"/>
			<stop  offset="1" style="stop-color:#F98668"/>
		</linearGradient>
		<circle class="st10" cx="109.8" cy="85.4" r="5.9"/>
		<linearGradient id="SVGID_13_" gradientUnits="userSpaceOnUse" x1="97.9767" y1="234.3211" x2="108.0889" y2="234.3211">
			<stop  offset="0" style="stop-color:#F5B6A2"/>
			<stop  offset="8.526373e-02" style="stop-color:#F6A58D"/>
			<stop  offset="0.1887" style="stop-color:#F8977C"/>
			<stop  offset="0.3176" style="stop-color:#F88D71"/>
			<stop  offset="0.4983" style="stop-color:#F9886A"/>
			<stop  offset="1" style="stop-color:#F98668"/>
		</linearGradient>
		<circle class="st11" cx="103" cy="234.3" r="5.1"/>
		<linearGradient id="SVGID_14_" gradientUnits="userSpaceOnUse" x1="296.2375" y1="108.0603" x2="306.3498" y2="108.0603">
			<stop  offset="0.1415" style="stop-color:#7590D9"/>
			<stop  offset="0.7291" style="stop-color:#647FCF"/>
			<stop  offset="1" style="stop-color:#5A75C9"/>
		</linearGradient>
		<circle class="st12" cx="301.3" cy="108.1" r="5.1"/>
		
			<linearGradient id="SVGID_15_" gradientUnits="userSpaceOnUse" x1="-1533.4968" y1="-1711.8215" x2="-1518.8646" y2="-1711.8215" gradientTransform="matrix(0.7071 0.7071 -0.7071 0.7071 -59.7179 2494.2588)">
			<stop  offset="0.1415" style="stop-color:#7590D9"/>
			<stop  offset="0.7291" style="stop-color:#647FCF"/>
			<stop  offset="1" style="stop-color:#5A75C9"/>
		</linearGradient>
		<path class="st13" d="M77.8,203.9l4.1,0.7l-4.1,0.7c-2.8,0.5-5,2.7-5.5,5.5l-0.7,4.1l-0.7-4.1c-0.5-2.8-2.7-5-5.5-5.5l-4.1-0.7
			l4.1-0.7c2.8-0.5,5-2.7,5.5-5.5l0.7-4.1l0.7,4.1C72.8,201.2,75,203.4,77.8,203.9z"/>
		
			<linearGradient id="SVGID_16_" gradientUnits="userSpaceOnUse" x1="-1430.2366" y1="-1976.9731" x2="-1419.0046" y2="-1976.9731" gradientTransform="matrix(0.7071 0.7071 -0.7071 0.7071 -59.7179 2494.2588)">
			<stop  offset="0" style="stop-color:#F5B6A2"/>
			<stop  offset="8.526373e-02" style="stop-color:#F6A58D"/>
			<stop  offset="0.1887" style="stop-color:#F8977C"/>
			<stop  offset="0.3176" style="stop-color:#F88D71"/>
			<stop  offset="0.4983" style="stop-color:#F9886A"/>
			<stop  offset="1" style="stop-color:#F98668"/>
		</linearGradient>
		<path class="st14" d="M335.7,88.4l3.1,0.6l-3.1,0.6c-2.2,0.4-3.9,2.1-4.3,4.3l-0.6,3.1l-0.6-3.1c-0.4-2.2-2.1-3.9-4.3-4.3
			l-3.1-0.6l3.1-0.6c2.2-0.4,3.9-2.1,4.3-4.3l0.6-3.1l0.6,3.1C331.8,86.3,333.5,88,335.7,88.4z"/>
	</g>
	<g>
		<linearGradient id="SVGID_17_" gradientUnits="userSpaceOnUse" x1="258.4764" y1="246.1935" x2="258.1732" y2="160.997">
			<stop  offset="0" style="stop-color:#F5B6A2"/>
			<stop  offset="8.526373e-02" style="stop-color:#F6A58D"/>
			<stop  offset="0.1887" style="stop-color:#F8977C"/>
			<stop  offset="0.3176" style="stop-color:#F88D71"/>
			<stop  offset="0.4983" style="stop-color:#F9886A"/>
			<stop  offset="1" style="stop-color:#F98668"/>
		</linearGradient>
		<path class="st15" d="M253.3,175.9l-32.9,57c-2.3,4,0.6,9,5.2,9h65.9c4.6,0,7.5-5,5.2-9l-32.9-57
			C261.3,171.9,255.6,171.9,253.3,175.9z"/>
		<g>
			<path class="st16" d="M254.3,230.4c0-2.2,1.7-4.1,4.1-4.1c2.5,0,4.1,1.8,4.1,4.1c0,2.2-1.7,4.1-4.1,4.1
				C256,234.5,254.3,232.6,254.3,230.4z M262.7,193c0,3.4-0.6,8.9-2,19.7l-1,10h-2.6l-1-10c-1.4-10.8-2-16.3-2-19.6
				c0-2.7,1.5-3.8,4.3-3.8C261.2,189.2,262.7,190.3,262.7,193z"/>
		</g>
	</g>
</g>
</svg>
