<svg id="图层_1" data-name="图层 1" xmlns="http://www.w3.org/2000/svg" xmlns:xlink="http://www.w3.org/1999/xlink" viewBox="0 0 400 300"><defs><style>.cls-1{opacity:0.5;}.cls-2{fill:url(#未命名的渐变_11);}.cls-3{fill:url(#未命名的渐变_11-2);}.cls-4{fill:url(#未命名的渐变_11-3);}.cls-5{fill:url(#未命名的渐变_11-4);}.cls-6{opacity:0.7;}.cls-7{fill:url(#未命名的渐变_11-5);}.cls-8{fill:url(#未命名的渐变_11-6);}.cls-9{fill:url(#未命名的渐变_11-7);}.cls-10{fill:#fff;}.cls-11{fill:url(#未命名的渐变_11-8);}.cls-12{fill:url(#未命名的渐变_11-9);}.cls-13{fill:url(#未命名的渐变_11-10);}.cls-14{fill:url(#未命名的渐变_11-11);}.cls-15{fill:url(#未命名的渐变_11-12);}.cls-16{fill:url(#未命名的渐变_10);}.cls-17{fill:url(#未命名的渐变_10-2);}.cls-18{fill:url(#未命名的渐变_9);}.cls-19,.cls-30,.cls-31,.cls-32{fill:none;}.cls-19,.cls-31,.cls-32{stroke-miterlimit:10;}.cls-19{stroke-width:4px;stroke:url(#未命名的渐变_5);}.cls-20{fill:url(#未命名的渐变_2);}.cls-21{fill:url(#未命名的渐变_6);}.cls-22{fill:url(#未命名的渐变_8);}.cls-23{fill:url(#未命名的渐变_2-2);}.cls-24{fill:url(#未命名的渐变_6-2);}.cls-25{fill:#343997;}.cls-26{fill:#b1c4eb;}.cls-27{fill:#f6c0bc;}.cls-28{fill:url(#未命名的渐变_5-2);}.cls-29{fill:url(#未命名的渐变_2-3);}.cls-30,.cls-32{stroke:#343997;stroke-linecap:round;}.cls-30{stroke-linejoin:round;}.cls-31{stroke:#5a75c9;}.cls-31,.cls-32{stroke-width:3px;}.cls-33{fill:url(#未命名的渐变_5-3);}.cls-34{fill:url(#未命名的渐变_5-4);}.cls-35{fill:url(#未命名的渐变_5-5);}.cls-36{fill:#070b33;}.cls-37{fill:url(#未命名的渐变_5-6);}.cls-38{fill:url(#未命名的渐变_2-4);}.cls-39{fill:url(#未命名的渐变_5-7);}.cls-40{fill:url(#未命名的渐变_2-5);}</style><linearGradient id="未命名的渐变_11" x1="-8493.73" y1="158.99" x2="-8493.73" y2="62.99" gradientTransform="matrix(1, 0, 0, -1, 8784.89, 221.98)" gradientUnits="userSpaceOnUse"><stop offset="0" stop-color="#fff"/><stop offset="0.82" stop-color="#eeeef2"/><stop offset="1" stop-color="#e9eaef"/></linearGradient><linearGradient id="未命名的渐变_11-2" x1="-8493.73" y1="62.99" x2="-8493.73" y2="58.99" gradientTransform="matrix(1, 0, 0, -1, 8784.89, 121.98)" xlink:href="#未命名的渐变_11"/><linearGradient id="未命名的渐变_11-3" x1="-8465.14" y1="139.32" x2="-8465.14" y2="43.32" gradientTransform="matrix(1, 0, 0, -1, 8727.72, 182.63)" xlink:href="#未命名的渐变_11"/><linearGradient id="未命名的渐变_11-4" x1="-8465.14" y1="43.32" x2="-8465.14" y2="39.32" gradientTransform="matrix(1, 0, 0, -1, 8727.72, 82.63)" xlink:href="#未命名的渐变_11"/><linearGradient id="未命名的渐变_11-5" x1="-8448.14" y1="171.36" x2="-8448.14" y2="75.36" gradientTransform="matrix(1, 0, 0, -1, 8693.71, 246.73)" xlink:href="#未命名的渐变_11"/><linearGradient id="未命名的渐变_11-6" x1="-8448.14" y1="75.36" x2="-8448.14" y2="71.36" gradientTransform="matrix(1, 0, 0, -1, 8693.71, 146.73)" xlink:href="#未命名的渐变_11"/><linearGradient id="未命名的渐变_11-7" x1="318.8" y1="165.69" x2="318.8" y2="85.69" gradientTransform="matrix(1, 0, 0, 1, 0, 0)" xlink:href="#未命名的渐变_11"/><linearGradient id="未命名的渐变_11-8" x1="65.84" y1="115.62" x2="65.84" y2="92.89" gradientTransform="matrix(1, 0, 0, 1, 0, 0)" xlink:href="#未命名的渐变_11"/><linearGradient id="未命名的渐变_11-9" x1="212.07" y1="123.59" x2="212.07" y2="57.59" gradientTransform="matrix(1, 0, 0, 1, 0, 0)" xlink:href="#未命名的渐变_11"/><linearGradient id="未命名的渐变_11-10" x1="99.02" y1="169.4" x2="99.02" y2="73.4" gradientTransform="matrix(1, 0, 0, 1, 0, 0)" xlink:href="#未命名的渐变_11"/><linearGradient id="未命名的渐变_11-11" x1="99.02" y1="73.4" x2="99.02" y2="69.4" gradientTransform="matrix(1, 0, 0, 1, 0, 0)" xlink:href="#未命名的渐变_11"/><linearGradient id="未命名的渐变_11-12" x1="134.84" y1="187.74" x2="134.84" y2="91.74" gradientTransform="matrix(1, 0, 0, 1, 0, 0)" xlink:href="#未命名的渐变_11"/><linearGradient id="未命名的渐变_10" x1="123.84" y1="198.97" x2="123.84" y2="144.97" gradientUnits="userSpaceOnUse"><stop offset="0.25" stop-color="#fff"/><stop offset="0.86" stop-color="#eeeef2"/><stop offset="1" stop-color="#e9eaef"/></linearGradient><linearGradient id="未命名的渐变_10-2" x1="305.47" y1="188.61" x2="305.47" y2="141.58" xlink:href="#未命名的渐变_10"/><linearGradient id="未命名的渐变_9" x1="200" y1="257.52" x2="200" y2="165.38" gradientUnits="userSpaceOnUse"><stop offset="0.31" stop-color="#fff"/><stop offset="0.87" stop-color="#eeeef2"/><stop offset="1" stop-color="#e9eaef"/></linearGradient><linearGradient id="未命名的渐变_5" x1="276.85" y1="189.72" x2="294.08" y2="189.72" gradientUnits="userSpaceOnUse"><stop offset="0" stop-color="#f5b6a2"/><stop offset="0.09" stop-color="#f6a58d"/><stop offset="0.19" stop-color="#f8977c"/><stop offset="0.32" stop-color="#f88d71"/><stop offset="0.5" stop-color="#f9886a"/><stop offset="1" stop-color="#f98668"/></linearGradient><linearGradient id="未命名的渐变_2" x1="50.81" y1="162.65" x2="66.81" y2="162.65" gradientUnits="userSpaceOnUse"><stop offset="0.14" stop-color="#7590d9"/><stop offset="0.73" stop-color="#647fcf"/><stop offset="1" stop-color="#5a75c9"/></linearGradient><linearGradient id="未命名的渐变_6" x1="-8495.95" y1="190.79" x2="-8483.36" y2="115.29" gradientTransform="matrix(-1, 0, 0, 1, -8310.3, 0)" gradientUnits="userSpaceOnUse"><stop offset="0" stop-color="#d0e9ff"/><stop offset="0.48" stop-color="#dbecff"/><stop offset="1" stop-color="#dfedff"/></linearGradient><linearGradient id="未命名的渐变_8" x1="-8502.88" y1="205.05" x2="-8421.45" y2="198.78" gradientTransform="matrix(-1, 0, 0, 1, -8310.3, 0)" gradientUnits="userSpaceOnUse"><stop offset="0" stop-color="#5a75c9"/><stop offset="0.92" stop-color="#7590d9"/></linearGradient><linearGradient id="未命名的渐变_2-2" x1="261.58" y1="134.44" x2="219.32" y2="150.87" xlink:href="#未命名的渐变_2"/><linearGradient id="未命名的渐变_6-2" x1="231.18" y1="169.94" x2="258.57" y2="158.99" gradientTransform="matrix(1, 0, 0, 1, 0, 0)" xlink:href="#未命名的渐变_6"/><linearGradient id="未命名的渐变_5-2" x1="-6086.74" y1="6123.9" x2="-6084.5" y2="6123.9" gradientTransform="matrix(-0.05, 1, 1, 0.05, -6256.85, 5854.26)" xlink:href="#未命名的渐变_5"/><linearGradient id="未命名的渐变_2-3" x1="-54.05" y1="-554.81" x2="-46.88" y2="-549.72" gradientTransform="matrix(0.99, 0.14, -0.14, 0.99, 126.71, 611.53)" xlink:href="#未命名的渐变_2"/><linearGradient id="未命名的渐变_5-3" x1="100.37" y1="124.08" x2="145.75" y2="169.67" xlink:href="#未命名的渐变_5"/><linearGradient id="未命名的渐变_5-4" x1="-9654.52" y1="236.85" x2="-9661.93" y2="236.85" gradientTransform="matrix(-1, 0, 0, 1, -9482.45, -116.78)" xlink:href="#未命名的渐变_5"/><linearGradient id="未命名的渐变_5-5" x1="-9647.47" y1="92.21" x2="-9654.88" y2="92.21" gradientTransform="matrix(-1, 0, 0, 1, -9486.37, 0)" xlink:href="#未命名的渐变_5"/><linearGradient id="未命名的渐变_5-6" x1="-9590.57" y1="3254.87" x2="-9585.86" y2="3254.87" gradientTransform="matrix(-0.72, 0.62, 0.65, 0.76, -8849.49, 3507.05)" xlink:href="#未命名的渐变_5"/><linearGradient id="未命名的渐变_2-4" x1="98.13" y1="2522.18" x2="111.48" y2="2522.18" gradientTransform="translate(-1254.75 -2030.99) rotate(-31.86)" xlink:href="#未命名的渐变_2"/><linearGradient id="未命名的渐变_5-7" x1="-5460.16" y1="6275.54" x2="-5457.93" y2="6275.54" gradientTransform="matrix(0.1, 1, 1, -0.1, -5570.34, 6099.79)" xlink:href="#未命名的渐变_5"/><linearGradient id="未命名的渐变_2-5" x1="-2776.32" y1="-3181.57" x2="-2788.29" y2="-3203.69" gradientTransform="translate(-997.05 4130.31) rotate(56.92)" xlink:href="#未命名的渐变_2"/></defs><title>抽取</title><g class="cls-1"><rect class="cls-2" x="270.17" y="62.99" width="42" height="96" transform="translate(582.33 221.98) rotate(-180)"/><rect class="cls-3" x="285.17" y="58.99" width="12" height="4" transform="translate(582.33 121.98) rotate(-180)"/></g><g class="cls-1"><rect class="cls-4" x="247.58" y="43.32" width="30" height="96" transform="translate(525.16 182.63) rotate(-180)"/><rect class="cls-5" x="258.29" y="39.32" width="8.57" height="4" transform="translate(525.16 82.63) rotate(-180)"/></g><g class="cls-6"><rect class="cls-7" x="235.58" y="75.36" width="20" height="96" transform="translate(491.15 246.73) rotate(-180)"/><rect class="cls-8" x="242.72" y="71.36" width="5.71" height="4" transform="translate(491.15 146.73) rotate(-180)"/></g><rect class="cls-9" x="305.47" y="85.69" width="26.67" height="80"/><rect class="cls-10" x="309.1" y="91.06" width="4.85" height="74.62"/><rect class="cls-10" x="323.65" y="91.06" width="4.85" height="74.62"/><rect class="cls-10" x="316.38" y="91.06" width="4.85" height="74.62"/><path class="cls-11" d="M79.33,91.92a22.8,22.8,0,0,0-21.1,14.17,9.37,9.37,0,0,0-8.62-.45,10.53,10.53,0,1,0-4.22,13.5,9.46,9.46,0,0,0,12.55,3.47A22.8,22.8,0,1,0,79.33,91.92Z"/><rect class="cls-12" x="201.07" y="57.59" width="22" height="66"/><rect class="cls-10" x="204.07" y="62.03" width="4" height="61.57"/><rect class="cls-10" x="216.07" y="62.03" width="4" height="61.57"/><rect class="cls-10" x="210.07" y="62.03" width="4" height="61.57"/><rect class="cls-13" x="85.02" y="73.4" width="28" height="96"/><rect class="cls-14" x="93.02" y="69.4" width="12" height="4"/><rect class="cls-10" x="90.02" y="77.59" width="18" height="3"/><rect class="cls-10" x="90.02" y="83.78" width="18" height="3"/><rect class="cls-10" x="90.02" y="89.97" width="18" height="3"/><rect class="cls-10" x="90.02" y="96.15" width="18" height="3"/><rect class="cls-10" x="90.02" y="102.34" width="18" height="3"/><rect class="cls-10" x="90.02" y="108.53" width="18" height="3"/><rect class="cls-10" x="90.02" y="114.71" width="18" height="3"/><rect class="cls-10" x="90.02" y="120.9" width="18" height="3"/><rect class="cls-10" x="90.02" y="127.09" width="18" height="3"/><rect class="cls-10" x="90.02" y="133.28" width="18" height="3"/><rect class="cls-10" x="90.02" y="139.46" width="18" height="3"/><rect class="cls-10" x="90.02" y="145.65" width="18" height="3"/><polygon class="cls-15" points="145.84 187.74 123.84 187.74 123.84 91.74 145.84 101.74 145.84 187.74"/><polygon class="cls-10" points="131.84 175.65 127.84 175.65 127.84 99.09 131.84 101.09 131.84 175.65"/><path class="cls-16" d="M153.41,166.25a15.62,15.62,0,0,0-4.07.56A23.26,23.26,0,0,0,105.77,157a21.38,21.38,0,1,0,11.89,32.94,23.31,23.31,0,0,0,21.43-2.35,15.47,15.47,0,1,0,14.32-21.3Z"/><path class="cls-17" d="M331.22,160.12a13.88,13.88,0,0,0-3.55.48A20.26,20.26,0,0,0,289.73,152a19.13,19.13,0,0,0-4.87-.64,18.62,18.62,0,1,0,15.22,29.33,20.26,20.26,0,0,0,18.67-2.05,13.47,13.47,0,1,0,12.47-18.54Z"/><path class="cls-18" d="M11.09,240.59c0-34.35,84.58-62.19,188.91-62.19s188.91,27.84,188.91,62.19"/><circle class="cls-19" cx="285.47" cy="189.72" r="6.61"/><path class="cls-20" d="M64.81,160.65h-4v-4a2,2,0,0,0-4,0v4h-4a2,2,0,0,0,0,4h4v4a2,2,0,0,0,4,0v-4h4a2,2,0,0,0,0-4Z"/><path class="cls-21" d="M130.84,106V213h71a13,13,0,0,0,13-13V106a13,13,0,0,1,13-13h-84a13,13,0,0,0-13,13Z"/><path class="cls-22" d="M103.84,191v9a13,13,0,0,0,13,13h85a13,13,0,0,1-13-13v-9Z"/><path class="cls-23" d="M214.87,106v87h39a13,13,0,0,1-13-13V106a13,13,0,0,0-26,0Z"/><path class="cls-24" d="M240.87,180V133h39a13,13,0,0,0-13,13v34a13,13,0,0,1-26,0Z"/><path class="cls-25" d="M292.9,153v-7a13,13,0,0,0-26,0v7Z"/><rect class="cls-26" x="149.15" y="110.62" width="50.94" height="4"/><rect class="cls-26" x="149.15" y="124.58" width="50.94" height="4"/><rect class="cls-26" x="149.15" y="175.65" width="24.56" height="4"/><rect class="cls-10" x="149.15" y="136.28" width="50.94" height="29.95"/><path class="cls-26" d="M193.09,136.28H191v2h2.06v-2Zm-4.06,0H179v2H189v-2Zm-12.05,0h-2.06v2H177v-2Zm-4.06,0h-10v2h10v-2Zm-12,0h-2.06v2h2.06v-2Zm-4.06,0h-7.66v2h0v.39h2v-.39h5.66v-2Zm-5.66,4.39h-2v2.05h2v-2.05Zm0,4.05h-2v6h0v4.06h2v-6h0v-4.06Zm0,12.06h-2v2.05h2v-2.05Zm0,4.05h-2v5.4h4.66v-2h-2.66v-3.4Zm6.71,3.4h-2.05v2h2.05v-2Zm12.06,0H159.86v2h10.06v-2Zm4.05,0h-2.05v2H174v-2Zm12.06,0H176v2H186v-2Zm4.05,0H188v2h2.05v-2Zm10,0h-2v0h-6v2h8v-2Zm0-4.05h-2v2.05h2v-2.05Zm0-12.06h-2v4.06h0v6h2V148.07Zm0-4h-2v2h2v-2Zm0-7.74h-5v2h3V142h2v-5.74Z"/><path class="cls-27" d="M143.5,61.9c.29-.19,1.49,1,2.71.87l1,1.95s-2.81,2.47-2.95,2.3.95-1.56.95-1.56-2,1.91-2.22,1.59,1.75-1.81,1.75-1.81-2.64,1.56-2.75,1.24,1.42-1.44,2.12-1.92c0,0-2.2,1-2.32.66s2.95-1.84,2.95-1.84S143.09,62.16,143.5,61.9Z"/><path class="cls-28" d="M146.61,62.6s-.63.16-.66.53.05,1.4.78,1.7a.93.93,0,0,0,.85-.25C147.91,64.2,146.61,62.6,146.61,62.6Z"/><path class="cls-29" d="M147.85,64.48a2.56,2.56,0,0,0,.74-.28l1.71-.63,1.89-.7a11.57,11.57,0,0,0,2.31-1.08,10.5,10.5,0,0,0,3.07-2.22,15.8,15.8,0,0,0,1.57-2.74,47.38,47.38,0,0,0,2.43-6.11,2.72,2.72,0,0,0,.26-1.45c-.19-.76-.91-1.08-1.57-1.33a1.84,1.84,0,0,0-2.3.93l-4.09,8.81-7.61,5S145.94,64.18,147.85,64.48Z"/><polyline class="cls-30" points="111.84 129.96 121.58 120.22 131.31 129.96"/><path class="cls-30" d="M121.58,120.23V108.6c0-5.25,0-10.51,0-15.76a7.08,7.08,0,0,1,1.91-5.32c.87-.83,1.91-1.55,2.84-2.33l6.14-5.1,14.2-11.81c2.06-1.71,2.27-1.74,4.33-3.45"/><circle class="cls-31" cx="128.48" cy="92.86" r="5.63"/><line class="cls-32" x1="128.48" y1="92.86" x2="137.78" y2="99.89"/><rect class="cls-33" x="90.84" y="129.18" width="62" height="32.95" rx="2"/><rect class="cls-10" x="98.49" y="138.16" width="46.7" height="3.34"/><rect class="cls-10" x="98.49" y="149.8" width="46.7" height="3.34"/><path class="cls-34" d="M173.77,91.46c-1.76.18-.7,1.6-.7,1.6l7.1,0-.33-1.72-.66-.16-2.89.5Z"/><path class="cls-35" d="M162.11,91.56c-1.76.18-.71,1.59-.71,1.59h7.11l-.33-1.72-.66-.16-2.89.49Z"/><path class="cls-36" d="M175.48,60.43s2.8,4.71,2.15,9-1,8-1,8l3.22,13.26a.43.43,0,0,1-.17.53,6.09,6.09,0,0,1-1.41.58,6.94,6.94,0,0,1-1.51.08.83.83,0,0,1-.74-.47l-3.43-12.25s-.63-7.2-.76-9.42l-1.26,1.77-2.9,7.65.63,12.21a.61.61,0,0,1-.46.63,6,6,0,0,1-1.34.12,11.69,11.69,0,0,1-1.44-.2.55.55,0,0,1-.43-.47l-1.39-12.29s1.87-12.87,5.13-15.26Z"/><path class="cls-27" d="M158.44,45.63s-.25-3.25-2-4.59a3.76,3.76,0,0,0-4,1,3.06,3.06,0,0,0,0,2.93,5.89,5.89,0,0,1,.27,1.44c0,.42.7-.24.7-.24a2.46,2.46,0,0,0,1.78,1.3,2.52,2.52,0,0,0,1.19-.1l1,1,2.11-1.58-1.11-1.05Z"/><path class="cls-36" d="M151.37,43.64s.18.8,1.65,0,1.72-.88,2.24-.52a1.45,1.45,0,0,1,.61.84l.14.75s.22-1,.55-1,.54.78.27,1.28,1.45,1.21,1.45,1.21l.88-.93s.3-3.51-1.36-5-3.35-2.07-6.06.26A2,2,0,0,0,151.37,43.64Z"/><path class="cls-37" d="M159.35,45.87l1.05,1L157,49.78,156.45,48A5.06,5.06,0,0,0,159.35,45.87Z"/><path class="cls-38" d="M163.64,45.87c-1.06-.26-3.73.54-3.73.54.49.83-2.5,1.9-3.19,2.43-.51.39.32,3.59.32,3.59l1.83,3.15a20.67,20.67,0,0,0,1.64,3.87c1.34,2.1,4.88,8.7,4.88,8.7a59.26,59.26,0,0,0,6.06-2.91,60.86,60.86,0,0,0,5-4.58s-4.56-6.23-6.17-8.33C170.29,52.33,166.5,46.57,163.64,45.87Z"/><path class="cls-27" d="M150.66,67.36c.66-.11,2.66-2.36,2.66-2.36L152,63.22c-1.19.31-2.88,1-2.87,1.34,0,.94.7.43.7.43s-1.2.54-1.25.86C148.62,65.85,148.16,67.77,150.66,67.36Z"/><path class="cls-39" d="M152.41,63s-.6.25-.58.62.26,1.37,1,1.57a.91.91,0,0,0,.81-.37C153.92,64.39,152.41,63,152.41,63Z"/><path class="cls-40" d="M153.9,64.67c.2,0,.53-.29.7-.38l1.6-.86,1.77-1a11.19,11.19,0,0,0,2.13-1.4,10.36,10.36,0,0,0,2.72-2.64A15.44,15.44,0,0,0,164,55.49a47.92,47.92,0,0,0,1.53-6.39,2.67,2.67,0,0,0,0-1.48,2.17,2.17,0,0,0-1.75-1.09,1.83,1.83,0,0,0-2.13,1.25l-2.8,9.3-6.81,6.07S152,64.65,153.9,64.67Z"/></svg>