<svg id="图层_1" data-name="图层 1" xmlns="http://www.w3.org/2000/svg" xmlns:xlink="http://www.w3.org/1999/xlink" viewBox="0 0 400 300"><defs><style>.cls-1{opacity:0.5;}.cls-2{fill:url(#未命名的渐变_19);}.cls-3{fill:url(#未命名的渐变_19-2);}.cls-4{fill:url(#未命名的渐变_19-3);}.cls-5{fill:url(#未命名的渐变_19-4);}.cls-6{opacity:0.7;}.cls-7{fill:url(#未命名的渐变_19-5);}.cls-8{fill:url(#未命名的渐变_19-6);}.cls-9{fill:url(#未命名的渐变_19-7);}.cls-10{fill:url(#未命名的渐变_19-8);}.cls-11{fill:url(#未命名的渐变_19-9);}.cls-12{fill:url(#未命名的渐变_19-10);}.cls-13{fill:url(#未命名的渐变_19-11);}.cls-14{fill:url(#未命名的渐变_19-12);}.cls-15{fill:url(#未命名的渐变_19-13);}.cls-16{fill:#fff;}.cls-17{fill:url(#未命名的渐变_19-14);}.cls-18{fill:url(#未命名的渐变_19-15);}.cls-19{fill:url(#未命名的渐变_19-16);}.cls-20{fill:url(#未命名的渐变_20);}.cls-21{fill:url(#未命名的渐变_19-17);}.cls-22{fill:url(#未命名的渐变_19-18);}.cls-23{fill:url(#未命名的渐变_67);}.cls-24,.cls-30,.cls-31,.cls-32,.cls-33,.cls-34,.cls-35,.cls-36,.cls-37,.cls-38,.cls-39,.cls-40,.cls-41,.cls-42,.cls-43,.cls-44,.cls-45,.cls-46,.cls-47,.cls-48{fill:none;stroke-miterlimit:10;}.cls-24{stroke-width:4px;stroke:url(#未命名的渐变_73);}.cls-25{fill:url(#未命名的渐变_24);}.cls-26{fill:#343999;}.cls-27{fill:url(#未命名的渐变_64);}.cls-28{fill:url(#未命名的渐变_24-2);}.cls-29{fill:#b3c6ed;}.cls-30,.cls-31,.cls-32,.cls-33,.cls-34,.cls-35,.cls-36,.cls-37,.cls-38,.cls-39,.cls-40,.cls-41,.cls-42,.cls-43,.cls-44,.cls-45,.cls-46,.cls-47,.cls-48{stroke:#b3c6ed;}.cls-31{stroke-dasharray:0.01 1.13 0.01 0;}.cls-32{stroke-dasharray:1.14 0 0.01 1.13 0.01 0;}.cls-33{stroke-dasharray:0.01 1.81 0.01 0;}.cls-34{stroke-dasharray:1.83 0 0.01 1.81 0.01 0;}.cls-35{stroke-dasharray:0.01 1.96 0.01 0;}.cls-36{stroke-dasharray:1.98 0 0.01 1.96 0.01 0;}.cls-37{stroke-dasharray:0.01 1.79 0.01 0;}.cls-38{stroke-dasharray:1.81 0 0.01 1.79 0.01 0;}.cls-39{stroke-dasharray:0.01 2.02 0.01 0;}.cls-40{stroke-dasharray:2.04 0 0.01 2.02 0.01 0;}.cls-41{stroke-dasharray:0.01 1.08 0.01 0;}.cls-42{stroke-dasharray:1.09 0 0.01 1.08 0.01 0;}.cls-43{stroke-dasharray:0.01 1.93 0.01 0;}.cls-44{stroke-dasharray:1.95 0 0.01 1.93 0.01 0;}.cls-45{stroke-dasharray:0.01 1.93 0.01 0;}.cls-46{stroke-dasharray:1.95 0 0.01 1.93 0.01 0;}.cls-47{stroke-dasharray:0.01 2.14 0.01 0;}.cls-48{stroke-dasharray:2.16 0 0.01 2.14 0.01 0;}.cls-49{fill:url(#未命名的渐变_74);}.cls-50{fill:url(#未命名的渐变_24-3);}.cls-51{fill:url(#未命名的渐变_73-2);}.cls-52{fill:url(#未命名的渐变_73-3);}.cls-53{fill:#070b33;}.cls-54{fill:#f8c2be;}.cls-55{fill:url(#未命名的渐变_73-4);}.cls-56{fill:url(#未命名的渐变_24-4);}.cls-57{fill:url(#未命名的渐变_73-5);}.cls-58{fill:url(#未命名的渐变_24-5);}.cls-59{fill:url(#未命名的渐变_73-6);}.cls-60{fill:url(#未命名的渐变_73-7);}.cls-61{fill:url(#未命名的渐变_24-6);}</style><linearGradient id="未命名的渐变_19" x1="72.55" y1="188.59" x2="72.55" y2="92.59" gradientUnits="userSpaceOnUse"><stop offset="0" stop-color="#fff"/><stop offset="0.88" stop-color="#eeeff3"/><stop offset="1" stop-color="#ebecf1"/></linearGradient><linearGradient id="未命名的渐变_19-2" x1="72.55" y1="92.59" x2="72.55" y2="88.59" xlink:href="#未命名的渐变_19"/><linearGradient id="未命名的渐变_19-3" x1="101.14" y1="168.92" x2="101.14" y2="72.92" xlink:href="#未命名的渐变_19"/><linearGradient id="未命名的渐变_19-4" x1="101.14" y1="72.92" x2="101.14" y2="68.92" xlink:href="#未命名的渐变_19"/><linearGradient id="未命名的渐变_19-5" x1="118.14" y1="200.97" x2="118.14" y2="104.97" xlink:href="#未命名的渐变_19"/><linearGradient id="未命名的渐变_19-6" x1="118.14" y1="104.97" x2="118.14" y2="100.97" xlink:href="#未命名的渐变_19"/><linearGradient id="未命名的渐变_19-7" x1="-7590.96" y1="144.79" x2="-7590.96" y2="71.51" gradientTransform="matrix(1, 0, 0, -1, 7887.77, 216.29)" xlink:href="#未命名的渐变_19"/><linearGradient id="未命名的渐变_19-8" x1="-7590.96" y1="71.51" x2="-7590.96" y2="68.45" gradientTransform="matrix(1, 0, 0, -1, 7887.77, 139.96)" xlink:href="#未命名的渐变_19"/><linearGradient id="未命名的渐变_19-9" x1="-7569.14" y1="129.77" x2="-7569.14" y2="56.49" gradientTransform="matrix(1, 0, 0, -1, 7844.13, 186.26)" xlink:href="#未命名的渐变_19"/><linearGradient id="未命名的渐变_19-10" x1="-7569.14" y1="56.49" x2="-7569.14" y2="53.44" gradientTransform="matrix(1, 0, 0, -1, 7844.13, 109.93)" xlink:href="#未命名的渐变_19"/><linearGradient id="未命名的渐变_19-11" x1="-7556.16" y1="154.23" x2="-7556.16" y2="80.95" gradientTransform="matrix(1, 0, 0, -1, 7818.17, 235.18)" xlink:href="#未命名的渐变_19"/><linearGradient id="未命名的渐变_19-12" x1="-7556.16" y1="80.95" x2="-7556.16" y2="77.9" gradientTransform="matrix(1, 0, 0, -1, 7818.17, 158.85)" xlink:href="#未命名的渐变_19"/><linearGradient id="未命名的渐变_19-13" x1="95.84" y1="191.01" x2="95.84" y2="125.01" xlink:href="#未命名的渐变_19"/><linearGradient id="未命名的渐变_19-14" x1="137.15" y1="144.65" x2="137.15" y2="48.65" xlink:href="#未命名的渐变_19"/><linearGradient id="未命名的渐变_19-15" x1="137.15" y1="48.65" x2="137.15" y2="44.65" xlink:href="#未命名的渐变_19"/><linearGradient id="未命名的渐变_19-16" x1="309.5" y1="184.06" x2="309.5" y2="88.06" xlink:href="#未命名的渐变_19"/><linearGradient id="未命名的渐变_20" x1="218.94" y1="146.85" x2="218.94" y2="72.7" gradientUnits="userSpaceOnUse"><stop offset="0.25" stop-color="#fff"/><stop offset="0.91" stop-color="#eeeff3"/><stop offset="1" stop-color="#ebecf1"/></linearGradient><linearGradient id="未命名的渐变_19-17" x1="176.69" y1="71.4" x2="176.69" y2="59.34" xlink:href="#未命名的渐变_19"/><linearGradient id="未命名的渐变_19-18" x1="250.02" y1="167.69" x2="250.02" y2="87.69" xlink:href="#未命名的渐变_19"/><linearGradient id="未命名的渐变_67" x1="200" y1="257.52" x2="200" y2="165.38" gradientUnits="userSpaceOnUse"><stop offset="0.31" stop-color="#fff"/><stop offset="0.92" stop-color="#eeeff3"/><stop offset="1" stop-color="#ebecf1"/></linearGradient><linearGradient id="未命名的渐变_73" x1="205.19" y1="85.28" x2="222.42" y2="85.28" gradientUnits="userSpaceOnUse"><stop offset="0" stop-color="#f7b8a4"/><stop offset="0" stop-color="#f7b7a3"/><stop offset="0.09" stop-color="#f9a68d"/><stop offset="0.19" stop-color="#fa987c"/><stop offset="0.32" stop-color="#fa8f71"/><stop offset="0.5" stop-color="#fb896a"/><stop offset="1" stop-color="#fb8868"/></linearGradient><linearGradient id="未命名的渐变_24" x1="56.39" y1="140.96" x2="72.39" y2="140.96" gradientUnits="userSpaceOnUse"><stop offset="0.14" stop-color="#7592db"/><stop offset="0.69" stop-color="#6581d1"/><stop offset="1" stop-color="#5a75cb"/></linearGradient><linearGradient id="未命名的渐变_64" x1="148.14" y1="193.89" x2="161.13" y2="115.98" gradientUnits="userSpaceOnUse"><stop offset="0" stop-color="#d2ebff"/><stop offset="0.48" stop-color="#def"/><stop offset="1" stop-color="#e1efff"/></linearGradient><linearGradient id="未命名的渐变_24-2" x1="81.45" y1="2029.89" x2="120.45" y2="2029.89" gradientTransform="matrix(1, 0, 0, -1, 0, 2217.86)" xlink:href="#未命名的渐变_24"/><linearGradient id="未命名的渐变_74" x1="234.83" y1="73.69" x2="295.09" y2="337.43" gradientUnits="userSpaceOnUse"><stop offset="0" stop-color="#f8fbff"/><stop offset="0.15" stop-color="#f2f8ff"/><stop offset="0.59" stop-color="#e5f1ff"/><stop offset="1" stop-color="#e1efff"/></linearGradient><linearGradient id="未命名的渐变_24-3" x1="-7731.91" y1="2031.64" x2="-7706.1" y2="2031.64" gradientTransform="translate(-7428.23 2217.86) rotate(180)" xlink:href="#未命名的渐变_24"/><linearGradient id="未命名的渐变_73-2" x1="-8095.88" y1="1077.82" x2="-8103.3" y2="1077.82" gradientTransform="matrix(-0.98, 0.2, 0.2, 0.98, -7926.77, 793.39)" xlink:href="#未命名的渐变_73"/><linearGradient id="未命名的渐变_73-3" x1="-7955.9" y1="211.67" x2="-7963.32" y2="211.67" gradientTransform="matrix(-1, 0, 0, 1, -7752.11, 0)" xlink:href="#未命名的渐变_73"/><linearGradient id="未命名的渐变_73-4" x1="-7952.08" y1="163.69" x2="-7949.85" y2="163.69" gradientTransform="matrix(-1, 0, 0, 1, -7752.11, 0)" xlink:href="#未命名的渐变_73"/><linearGradient id="未命名的渐变_24-4" x1="197.8" y1="168.86" x2="214.26" y2="168.86" xlink:href="#未命名的渐变_24"/><linearGradient id="未命名的渐变_73-5" x1="-8316.36" y1="820.02" x2="-8311.65" y2="820.02" gradientTransform="matrix(-0.94, 0.15, 0.15, 0.99, -7694.94, 568.12)" xlink:href="#未命名的渐变_73"/><linearGradient id="未命名的渐变_24-5" x1="209.1" y1="175.82" x2="222.45" y2="175.82" xlink:href="#未命名的渐变_24"/><linearGradient id="未命名的渐变_73-6" x1="296.94" y1="1474.39" x2="332.18" y2="1474.39" gradientTransform="translate(-547.39 -1140.81) rotate(-17.54)" xlink:href="#未命名的渐变_73"/><linearGradient id="未命名的渐变_73-7" x1="-5321.56" y1="5234.23" x2="-5319.33" y2="5234.23" gradientTransform="matrix(-0.12, 0.99, 0.99, 0.12, -5643.18, 4805.39)" xlink:href="#未命名的渐变_73"/><linearGradient id="未命名的渐变_24-6" x1="-61.44" y1="-615.33" x2="-69.48" y2="-630.18" gradientTransform="translate(161.06 797.09) rotate(11.29)" xlink:href="#未命名的渐变_24"/></defs><title>文本比对</title><g class="cls-1"><rect class="cls-2" x="51.55" y="92.59" width="42" height="96"/><rect class="cls-3" x="66.55" y="88.59" width="12" height="4"/></g><g class="cls-1"><rect class="cls-4" x="86.14" y="72.92" width="30" height="96"/><rect class="cls-5" x="96.85" y="68.92" width="8.57" height="4"/></g><g class="cls-6"><rect class="cls-7" x="108.14" y="104.97" width="20" height="96"/><rect class="cls-8" x="115.28" y="100.97" width="5.71" height="4"/></g><g class="cls-1"><rect class="cls-9" x="280.78" y="71.51" width="32.06" height="73.28" transform="translate(593.63 216.29) rotate(-180)"/><rect class="cls-10" x="292.23" y="68.45" width="9.16" height="3.05" transform="translate(593.63 139.96) rotate(-180)"/></g><g class="cls-1"><rect class="cls-11" x="263.54" y="56.49" width="22.9" height="73.28" transform="translate(549.99 186.26) rotate(-180)"/><rect class="cls-12" x="271.72" y="53.44" width="6.54" height="3.05" transform="translate(549.99 109.93) rotate(-180)"/></g><g class="cls-6"><rect class="cls-13" x="254.38" y="80.95" width="15.27" height="73.28" transform="translate(524.03 235.18) rotate(-180)"/><rect class="cls-14" x="259.83" y="77.9" width="4.36" height="3.05" transform="translate(524.03 158.85) rotate(-180)"/></g><rect class="cls-15" x="84.84" y="125.01" width="22" height="66"/><rect class="cls-16" x="87.84" y="129.45" width="4" height="61.57"/><rect class="cls-16" x="99.84" y="129.45" width="4" height="61.57"/><rect class="cls-16" x="93.84" y="129.45" width="4" height="61.57"/><rect class="cls-17" x="123.15" y="48.65" width="28" height="96"/><rect class="cls-18" x="131.15" y="44.65" width="12" height="4"/><rect class="cls-16" x="128.15" y="52.84" width="18" height="3"/><rect class="cls-16" x="128.15" y="59.03" width="18" height="3"/><rect class="cls-16" x="128.15" y="65.22" width="18" height="3"/><rect class="cls-16" x="128.15" y="71.4" width="18" height="3"/><rect class="cls-16" x="128.15" y="77.59" width="18" height="3"/><rect class="cls-16" x="128.15" y="83.78" width="18" height="3"/><rect class="cls-16" x="128.15" y="89.97" width="18" height="3"/><rect class="cls-16" x="128.15" y="96.15" width="18" height="3"/><rect class="cls-16" x="128.15" y="102.34" width="18" height="3"/><rect class="cls-16" x="128.15" y="108.53" width="18" height="3"/><rect class="cls-16" x="128.15" y="114.71" width="18" height="3"/><rect class="cls-16" x="128.15" y="120.9" width="18" height="3"/><polygon class="cls-19" points="320.5 184.06 298.5 184.06 298.5 88.06 320.5 98.06 320.5 184.06"/><polygon class="cls-16" points="306.5 171.97 302.5 171.97 302.5 95.41 306.5 97.41 306.5 171.97"/><path class="cls-20" d="M259.54,101.93a21.54,21.54,0,0,0-5.59.76,31.94,31.94,0,0,0-59.83-13.52,29.35,29.35,0,1,0,16.33,45.22,32,32,0,0,0,29.43-3.23,21.23,21.23,0,1,0,19.66-29.23Z"/><path class="cls-21" d="M183.85,58.83a12.1,12.1,0,0,0-11.2,7.51,5,5,0,0,0-2.51-.68,5,5,0,0,0-2.06.45,5.59,5.59,0,1,0-2.24,7.16,5,5,0,0,0,6.66,1.84,12.09,12.09,0,1,0,11.35-16.28Z"/><rect class="cls-22" x="236.69" y="87.69" width="26.67" height="80"/><rect class="cls-16" x="240.32" y="93.06" width="4.85" height="74.62"/><rect class="cls-16" x="254.87" y="93.06" width="4.85" height="74.62"/><rect class="cls-16" x="247.6" y="93.06" width="4.85" height="74.62"/><path class="cls-23" d="M11.09,240.59c0-34.35,84.58-62.19,188.91-62.19s188.91,27.84,188.91,62.19"/><circle class="cls-24" cx="213.81" cy="85.28" r="6.61"/><path class="cls-25" d="M70.39,139h-4v-4a2,2,0,0,0-4,0v4h-4a2,2,0,0,0,0,4h4v4a2,2,0,0,0,4,0v-4h4a2,2,0,1,0,0-4Z"/><path class="cls-26" d="M120.45,123h-26V106a13,13,0,0,1,26,0Z"/><path class="cls-27" d="M200.64,96.78A13,13,0,0,0,191.45,93h-84a13,13,0,0,1,13,13v94a13,13,0,0,1-13,13h84a13,13,0,0,0,13-13V106A13,13,0,0,0,200.64,96.78Z"/><path class="cls-28" d="M120.45,200V163h-39a13,13,0,0,1,13,13v24a13,13,0,0,0,26,0Z"/><path class="cls-26" d="M68.45,183v-7a13,13,0,0,1,26,0v7Z"/><rect class="cls-29" x="149.45" y="109.73" width="42" height="4"/><rect class="cls-29" x="149.45" y="125.69" width="42" height="4"/><rect class="cls-29" x="149.45" y="141.64" width="19.5" height="4"/><path class="cls-16" d="M137.45,108.73a3,3,0,1,1-3,3,3,3,0,0,1,3-3m0-3a6,6,0,1,0,6,6,6,6,0,0,0-6-6Z"/><path class="cls-16" d="M137.45,124.69a3,3,0,1,1-3,3,3,3,0,0,1,3-3m0-3a6,6,0,1,0,6,6,6,6,0,0,0-6-6Z"/><path class="cls-16" d="M137.45,140.64a3,3,0,1,1-3,3,3,3,0,0,1,3-3m0-3a6,6,0,1,0,6,6,6,6,0,0,0-6-6Z"/><polyline class="cls-30" points="165.38 197.36 165.74 198.29 164.74 198.29"/><line class="cls-31" x1="164.74" y1="198.29" x2="164.6" y2="198.29"/><line class="cls-32" x1="163.6" y1="198.29" x2="161.31" y2="198.3"/><polyline class="cls-30" points="161.31 198.3 160.31 198.3 159.96 197.36"/><line class="cls-33" x1="159.96" y1="197.36" x2="159.67" y2="196.59"/><line class="cls-34" x1="159.32" y1="195.65" x2="156.76" y2="188.81"/><polyline class="cls-30" points="156.76 188.81 156.41 187.88 155.41 187.88"/><line class="cls-35" x1="155.41" y1="187.88" x2="154.43" y2="187.88"/><line class="cls-36" x1="153.43" y1="187.88" x2="141.55" y2="187.9"/><polyline class="cls-30" points="141.55 187.9 140.55 187.9 140.22 188.84"/><line class="cls-37" x1="140.22" y1="188.84" x2="139.95" y2="189.61"/><line class="cls-38" x1="139.62" y1="190.55" x2="137.23" y2="197.39"/><polyline class="cls-30" points="137.23 197.39 136.9 198.33 135.9 198.33"/><line class="cls-31" x1="135.9" y1="198.33" x2="135.75" y2="198.33"/><line class="cls-32" x1="134.75" y1="198.33" x2="132.47" y2="198.34"/><polyline class="cls-30" points="132.47 198.34 131.47 198.34 131.82 197.4"/><line class="cls-39" x1="131.82" y1="197.4" x2="132.19" y2="196.43"/><line class="cls-40" x1="132.54" y1="195.5" x2="145.56" y2="161.17"/><polyline class="cls-30" points="145.56 161.17 145.92 160.23 146.92 160.23"/><line class="cls-41" x1="146.92" y1="160.23" x2="147.01" y2="160.23"/><line class="cls-42" x1="148.01" y1="160.23" x2="150.18" y2="160.22"/><polyline class="cls-30" points="150.18 160.22 151.18 160.22 151.54 161.16"/><line class="cls-39" x1="151.54" y1="161.16" x2="151.91" y2="162.13"/><line class="cls-40" x1="152.27" y1="163.06" x2="165.38" y2="197.36"/><polyline class="cls-30" points="153.88 183.58 154.88 183.58 154.53 182.64"/><line class="cls-43" x1="154.53" y1="182.64" x2="154.21" y2="181.74"/><path class="cls-44" d="M153.86,180.8l-4.76-13.05a11.53,11.53,0,0,1-.41-1.67"/><path class="cls-30" d="M148.69,166.08c-.06-.3-.12-.63-.18-1h-.13c0,.35-.11.68-.17,1"/><path class="cls-45" d="M148.21,166.08q-.11.51-.21.93"/><line class="cls-46" x1="147.7" y1="167.96" x2="142.43" y2="182.66"/><polyline class="cls-30" points="142.43 182.65 142.09 183.59 143.09 183.59"/><line class="cls-47" x1="143.09" y1="183.59" x2="144.25" y2="183.59"/><line class="cls-48" x1="145.25" y1="183.59" x2="153.88" y2="183.58"/><path class="cls-26" d="M277.87,143.21h17.21V132a8.61,8.61,0,0,0-17.21,0Z"/><path class="cls-49" d="M224.81,125.87a8.58,8.58,0,0,1,6.08-2.52h55.59a8.6,8.6,0,0,0-8.61,8.61v62.2a8.6,8.6,0,0,0,8.61,8.6H230.89a8.6,8.6,0,0,1-8.6-8.6V132A8.58,8.58,0,0,1,224.81,125.87Z"/><path class="cls-50" d="M277.87,194.16V169.68h25.81a8.6,8.6,0,0,0-8.6,8.6v15.88a8.61,8.61,0,0,1-17.21,0Z"/><path class="cls-26" d="M312.29,182.91v-4.63a8.61,8.61,0,0,0-17.21,0v4.63Z"/><rect class="cls-29" x="242.8" y="134.45" width="27.79" height="2.65"/><rect class="cls-29" x="242.8" y="145.01" width="27.79" height="2.65"/><rect class="cls-29" x="242.8" y="155.56" width="12.9" height="2.65"/><path class="cls-16" d="M234.86,133.8a2,2,0,1,1-2,2,2,2,0,0,1,2-2m0-2a4,4,0,1,0,4,4,4,4,0,0,0-4-4Z"/><path class="cls-16" d="M234.86,144.36a2,2,0,1,1-2,2,2,2,0,0,1,2-2m0-2a4,4,0,1,0,4,4,4,4,0,0,0-4-4Z"/><path class="cls-16" d="M234.86,154.92a2,2,0,1,1-2,2,2,2,0,0,1,2-2m0-2a4,4,0,1,0,4,4,4,4,0,0,0-4-4Z"/><path class="cls-29" d="M231.8,192.63V166.8h7.58a8.49,8.49,0,0,1,5.44,1.62,5.26,5.26,0,0,1,2,4.32,6.22,6.22,0,0,1-1.21,3.77,6.47,6.47,0,0,1-3.33,2.31v.07a6.57,6.57,0,0,1,4.21,2,6.07,6.07,0,0,1,1.58,4.3,6.76,6.76,0,0,1-2.4,5.39,9,9,0,0,1-6.13,2.06Zm3.33-22.91v8.09h3a5.67,5.67,0,0,0,3.79-1.18,4,4,0,0,0,1.38-3.26c0-2.44-1.63-3.65-4.87-3.65Zm0,11v9h4a6.12,6.12,0,0,0,4.05-1.21,4.18,4.18,0,0,0,1.42-3.37c0-2.95-2-4.43-6-4.43Z"/><path class="cls-51" d="M220.69,211.11c-1.69.53-.37,1.7-.37,1.7l7-1.43-.66-1.63-.69,0-2.72,1.06Z"/><path class="cls-52" d="M204.81,211c-1.76.17-.71,1.59-.71,1.59h7.11l-.33-1.72-.66-.16-2.89.49Z"/><path class="cls-53" d="M222.06,183.34s.65,1.4,0,5.7a77.88,77.88,0,0,0-.78,7.83l5.33,12.78a.42.42,0,0,1-.17.52,5.89,5.89,0,0,1-1.41.58,6.79,6.79,0,0,1-1.51.09.84.84,0,0,1-.73-.48l-5.56-11.76s-1.95-6.86-2.08-9.08l-1,.14-3.83,8.94.63,12.2a.62.62,0,0,1-.47.64,6.53,6.53,0,0,1-1.33.12,10,10,0,0,1-1.44-.21.52.52,0,0,1-.43-.47l-1.39-12.28s1.87-12.88,5.13-15.26Z"/><path class="cls-54" d="M215.08,163.34s1.5-2.9.7-5a3.76,3.76,0,0,0-3.9-1.31,3.07,3.07,0,0,0-1.51,2.51,6.25,6.25,0,0,1-.53,1.37c-.26.34.72.16.72.16a2.47,2.47,0,0,0,.82,2.05,2.74,2.74,0,0,0,1.06.54l.28,1.38,2.62-.23-.38-1.47Z"/><path class="cls-53" d="M210.13,157.91s-.28.78,1.42.83,1.92.16,2.18.75a1.47,1.47,0,0,1,.08,1l-.29.71s.74-.76,1-.58.05.94-.44,1.22.6,1.8.6,1.8l1.23-.32s2.11-2.83,1.48-4.95-1.76-3.54-5.29-3A2,2,0,0,0,210.13,157.91Z"/><path class="cls-54" d="M200.52,160.31c.21.29-.94,1.54-.75,2.75l-1.89,1.1s-2.6-2.68-2.44-2.83,1.6.87,1.6.87-2-1.95-1.69-2.14,1.89,1.66,1.89,1.66-1.68-2.57-1.37-2.69,1.51,1.35,2,2c0,0-1.14-2.15-.76-2.29s2,2.86,2,2.86S200.24,159.92,200.52,160.31Z"/><path class="cls-55" d="M200,163.45s-.2-.62-.56-.63-1.4.12-1.67.85a1,1,0,0,0,.3.85C198.43,164.82,200,163.45,200,163.45Z"/><path class="cls-56" d="M214.26,168s-8.47,6.85-11,6.62c-1-.08-2-1.7-2-1.7l-3.45-8.53a.28.28,0,0,1,.12-.36l1.62-1a.36.36,0,0,1,.49.12l4.09,6.81,5-3.7Z"/><path class="cls-57" d="M215.72,164l.37,1.4-4.4.69.44-1.78A5.06,5.06,0,0,0,215.72,164Z"/><path class="cls-58" d="M211.92,165.16c.87-.09,4,.58,4-.39l4.32.65a.16.16,0,0,1,.14.14c.13,1,1,7.44,1.22,9.72.26,2.63.85,10.34.85,10.34a62.57,62.57,0,0,1-6.68,1.24,60.41,60.41,0,0,1-6.67-.73s.47-7.47.44-10c0-1.57-.44-6.29-.44-6.29l.07-3.53A15.13,15.13,0,0,1,211.92,165.16Z"/><path class="cls-59" d="M219.49,183.64l-5.32,1.68-7-9-15.55,4.91-.36,11.36-5.33,1.68,2.43-41.83,5.15-1.63ZM204.3,172.56l-10.54-13.74a17.57,17.57,0,0,1-1.41-2.42l-.12,0a14.26,14.26,0,0,1,.22,2.79l-.68,17.29Z"/><path class="cls-54" d="M211.51,178.36c.31-.17,1.4,1.13,2.63,1.08l.86,2s-3,2.25-3.12,2.06S213,182,213,182s-2.19,1.75-2.34,1.42,1.88-1.67,1.88-1.67-2.75,1.34-2.84,1,1.54-1.32,2.27-1.75c0,0-2.27.86-2.37.47s3.09-1.6,3.09-1.6S211.08,178.59,211.51,178.36Z"/><path class="cls-60" d="M214.56,179.3s-.65.11-.71.48,0,1.39.65,1.75a.91.91,0,0,0,.87-.18C215.72,181,214.56,179.3,214.56,179.3Z"/><path class="cls-61" d="M220.29,165.46s0,0,0,0c.39.56,6.16,9,5.82,11.37-.15,1-1.85,1.9-1.85,1.9l-8.61,3c-.26.09-.44-.11-.6-.28a4.91,4.91,0,0,1-.43-.48,1.77,1.77,0,0,1-.17-.24c-.06-.08-.08-.19-.14-.27-.11-.31-.1-.66-.18-1a.32.32,0,0,1,.19-.4l7.23-3.44-3.33-5.27Z"/></svg>