<svg id="图层_1" data-name="图层 1" xmlns="http://www.w3.org/2000/svg" xmlns:xlink="http://www.w3.org/1999/xlink" viewBox="0 0 400 300"><defs><style>.cls-1{opacity:0.5;}.cls-2{fill:url(#未命名的渐变_19);}.cls-3{fill:url(#未命名的渐变_19-2);}.cls-4{fill:url(#未命名的渐变_19-3);}.cls-5{fill:url(#未命名的渐变_19-4);}.cls-6{opacity:0.7;}.cls-7{fill:url(#未命名的渐变_19-5);}.cls-8{fill:url(#未命名的渐变_19-6);}.cls-9{fill:url(#未命名的渐变_19-7);}.cls-10{fill:#fff;}.cls-11{fill:url(#未命名的渐变_19-8);}.cls-12{fill:url(#未命名的渐变_19-9);}.cls-13{fill:url(#未命名的渐变_19-10);}.cls-14{fill:url(#未命名的渐变_20);}.cls-15{fill:url(#未命名的渐变_19-11);}.cls-16{fill:url(#未命名的渐变_19-12);}.cls-17{fill:url(#未命名的渐变_67);}.cls-18{fill:url(#未命名的渐变_24);}.cls-19{fill:url(#未命名的渐变_64);}.cls-20{fill:url(#未命名的渐变_31);}.cls-21{fill:#343999;}.cls-22{fill:url(#未命名的渐变_73);}.cls-23,.cls-34{fill:none;}.cls-23{stroke:#fff;stroke-linecap:round;stroke-linejoin:round;stroke-width:3px;}.cls-24{fill:#f8c2be;}.cls-25{fill:#070b33;}.cls-26{fill:url(#未命名的渐变_73-2);}.cls-27{fill:url(#未命名的渐变_24-2);}.cls-28{fill:url(#未命名的渐变_73-3);}.cls-29{fill:url(#未命名的渐变_73-4);}.cls-30{fill:url(#未命名的渐变_73-5);}.cls-31{fill:url(#未命名的渐变_24-3);}.cls-32{fill:#b3c6ed;}.cls-33{fill:url(#未命名的渐变_73-6);}.cls-34{stroke-miterlimit:10;stroke-width:4px;stroke:url(#未命名的渐变_73-7);}.cls-35{fill:url(#未命名的渐变_24-4);}</style><linearGradient id="未命名的渐变_19" x1="72.55" y1="188.59" x2="72.55" y2="92.59" gradientUnits="userSpaceOnUse"><stop offset="0" stop-color="#fff"/><stop offset="0.88" stop-color="#eeeff3"/><stop offset="1" stop-color="#ebecf1"/></linearGradient><linearGradient id="未命名的渐变_19-2" x1="72.55" y1="92.59" x2="72.55" y2="88.59" xlink:href="#未命名的渐变_19"/><linearGradient id="未命名的渐变_19-3" x1="101.14" y1="168.92" x2="101.14" y2="72.92" xlink:href="#未命名的渐变_19"/><linearGradient id="未命名的渐变_19-4" x1="101.14" y1="72.92" x2="101.14" y2="68.92" xlink:href="#未命名的渐变_19"/><linearGradient id="未命名的渐变_19-5" x1="118.14" y1="200.97" x2="118.14" y2="104.97" xlink:href="#未命名的渐变_19"/><linearGradient id="未命名的渐变_19-6" x1="118.14" y1="104.97" x2="118.14" y2="100.97" xlink:href="#未命名的渐变_19"/><linearGradient id="未命名的渐变_19-7" x1="95.84" y1="191.01" x2="95.84" y2="125.01" xlink:href="#未命名的渐变_19"/><linearGradient id="未命名的渐变_19-8" x1="149.45" y1="161.7" x2="149.45" y2="65.7" xlink:href="#未命名的渐变_19"/><linearGradient id="未命名的渐变_19-9" x1="149.45" y1="65.7" x2="149.45" y2="61.7" xlink:href="#未命名的渐变_19"/><linearGradient id="未命名的渐变_19-10" x1="309.5" y1="184.06" x2="309.5" y2="88.06" xlink:href="#未命名的渐变_19"/><linearGradient id="未命名的渐变_20" x1="250.02" y1="200.42" x2="250.02" y2="131.77" gradientUnits="userSpaceOnUse"><stop offset="0.25" stop-color="#fff"/><stop offset="0.91" stop-color="#eeeff3"/><stop offset="1" stop-color="#ebecf1"/></linearGradient><linearGradient id="未命名的渐变_19-11" x1="223.48" y1="76.75" x2="223.48" y2="60.12" xlink:href="#未命名的渐变_19"/><linearGradient id="未命名的渐变_19-12" x1="280.62" y1="198.74" x2="280.62" y2="118.74" xlink:href="#未命名的渐变_19"/><linearGradient id="未命名的渐变_67" x1="200" y1="257.52" x2="200" y2="165.38" gradientUnits="userSpaceOnUse"><stop offset="0.31" stop-color="#fff"/><stop offset="0.92" stop-color="#eeeff3"/><stop offset="1" stop-color="#ebecf1"/></linearGradient><linearGradient id="未命名的渐变_24" x1="131.5" y1="117.97" x2="170.5" y2="117.97" gradientUnits="userSpaceOnUse"><stop offset="0.14" stop-color="#7592db"/><stop offset="0.69" stop-color="#6581d1"/><stop offset="1" stop-color="#5a75cb"/></linearGradient><linearGradient id="未命名的渐变_64" x1="199.7" y1="190.79" x2="212.28" y2="115.29" gradientUnits="userSpaceOnUse"><stop offset="0" stop-color="#d2ebff"/><stop offset="0.48" stop-color="#def"/><stop offset="1" stop-color="#e1efff"/></linearGradient><linearGradient id="未命名的渐变_31" x1="192.77" y1="205.05" x2="274.19" y2="198.78" gradientUnits="userSpaceOnUse"><stop offset="0" stop-color="#5a75cb"/><stop offset="0.92" stop-color="#7592db"/></linearGradient><linearGradient id="未命名的渐变_73" x1="-7792.72" y1="124.98" x2="-7830.73" y2="86.8" gradientTransform="matrix(-1, 0, 0, 1, -7541.73, 0)" gradientUnits="userSpaceOnUse"><stop offset="0" stop-color="#f7b8a4"/><stop offset="0" stop-color="#f7b7a3"/><stop offset="0.09" stop-color="#f9a68d"/><stop offset="0.19" stop-color="#fa987c"/><stop offset="0.32" stop-color="#fa8f71"/><stop offset="0.5" stop-color="#fb896a"/><stop offset="1" stop-color="#fb8868"/></linearGradient><linearGradient id="未命名的渐变_73-2" x1="157.1" y1="163.9" x2="163.13" y2="163.9" gradientTransform="matrix(1, 0, 0, 1, 0, 0)" xlink:href="#未命名的渐变_73"/><linearGradient id="未命名的渐变_24-2" x1="151" y1="173.17" x2="157.59" y2="173.17" xlink:href="#未命名的渐变_24"/><linearGradient id="未命名的渐变_73-3" x1="159.28" y1="213.39" x2="151.86" y2="213.39" gradientTransform="matrix(1, 0, 0, 1, 0, 0)" xlink:href="#未命名的渐变_73"/><linearGradient id="未命名的渐变_73-4" x1="169.59" y1="213.39" x2="162.17" y2="213.39" gradientTransform="matrix(1, 0, 0, 1, 0, 0)" xlink:href="#未命名的渐变_73"/><linearGradient id="未命名的渐变_73-5" x1="177.65" y1="161.4" x2="179.89" y2="161.4" gradientTransform="matrix(1, 0, 0, 1, 0, 0)" xlink:href="#未命名的渐变_73"/><linearGradient id="未命名的渐变_24-3" x1="152.73" y1="173.46" x2="179.66" y2="173.46" xlink:href="#未命名的渐变_24"/><linearGradient id="未命名的渐变_73-6" x1="185.5" y1="154.46" x2="202.02" y2="154.46" gradientTransform="matrix(1, 0, 0, 1, 0, 0)" xlink:href="#未命名的渐变_73"/><linearGradient id="未命名的渐变_73-7" x1="107.52" y1="168.21" x2="124.75" y2="168.21" gradientTransform="matrix(1, 0, 0, 1, 0, 0)" xlink:href="#未命名的渐变_73"/><linearGradient id="未命名的渐变_24-4" x1="169.07" y1="76.08" x2="185.07" y2="76.08" xlink:href="#未命名的渐变_24"/></defs><title>文本纠错</title><g class="cls-1"><rect class="cls-2" x="51.55" y="92.59" width="42" height="96"/><rect class="cls-3" x="66.55" y="88.59" width="12" height="4"/></g><g class="cls-1"><rect class="cls-4" x="86.14" y="72.92" width="30" height="96"/><rect class="cls-5" x="96.85" y="68.92" width="8.57" height="4"/></g><g class="cls-6"><rect class="cls-7" x="108.14" y="104.97" width="20" height="96"/><rect class="cls-8" x="115.28" y="100.97" width="5.71" height="4"/></g><rect class="cls-9" x="84.84" y="125.01" width="22" height="66"/><rect class="cls-10" x="87.84" y="129.45" width="4" height="61.57"/><rect class="cls-10" x="99.84" y="129.45" width="4" height="61.57"/><rect class="cls-10" x="93.84" y="129.45" width="4" height="61.57"/><rect class="cls-11" x="135.45" y="65.7" width="28" height="96"/><rect class="cls-12" x="143.45" y="61.7" width="12" height="4"/><rect class="cls-10" x="140.45" y="69.9" width="18" height="3"/><rect class="cls-10" x="140.45" y="76.08" width="18" height="3"/><rect class="cls-10" x="140.45" y="82.27" width="18" height="3"/><rect class="cls-10" x="140.45" y="88.46" width="18" height="3"/><rect class="cls-10" x="140.45" y="94.65" width="18" height="3"/><rect class="cls-10" x="140.45" y="100.83" width="18" height="3"/><rect class="cls-10" x="140.45" y="107.02" width="18" height="3"/><rect class="cls-10" x="140.45" y="113.21" width="18" height="3"/><rect class="cls-10" x="140.45" y="119.4" width="18" height="3"/><rect class="cls-10" x="140.45" y="125.58" width="18" height="3"/><rect class="cls-10" x="140.45" y="131.77" width="18" height="3"/><rect class="cls-10" x="140.45" y="137.96" width="18" height="3"/><polygon class="cls-13" points="320.5 184.06 298.5 184.06 298.5 88.06 320.5 98.06 320.5 184.06"/><polygon class="cls-10" points="306.5 171.97 302.5 171.97 302.5 95.41 306.5 97.41 306.5 171.97"/><path class="cls-14" d="M287.61,158.83a19.63,19.63,0,0,0-5.18.71A29.57,29.57,0,0,0,227,147a27.17,27.17,0,1,0,15.12,41.87,29.55,29.55,0,0,0,27.24-3,19.66,19.66,0,1,0,18.21-27.07Z"/><path class="cls-15" d="M233.35,59.41a16.69,16.69,0,0,0-15.44,10.36,6.91,6.91,0,0,0-6.3-.32,7.7,7.7,0,1,0-3.09,9.87,6.92,6.92,0,0,0,9.18,2.54,16.68,16.68,0,1,0,15.65-22.45Z"/><rect class="cls-16" x="267.29" y="118.74" width="26.67" height="80"/><rect class="cls-10" x="270.92" y="124.12" width="4.85" height="74.62"/><rect class="cls-10" x="285.47" y="124.12" width="4.85" height="74.62"/><rect class="cls-10" x="278.19" y="124.12" width="4.85" height="74.62"/><path class="cls-17" d="M11.09,240.59c0-34.35,84.58-62.19,188.91-62.19s188.91,27.84,188.91,62.19"/><path class="cls-18" d="M170.5,106v37h-39a13,13,0,0,0,13-13V106a13,13,0,0,1,26,0Z"/><path class="cls-19" d="M254.5,106V213h-71a13,13,0,0,1-13-13V106a13,13,0,0,0-13-13h84a13,13,0,0,1,13,13Z"/><path class="cls-20" d="M281.5,191v9a13,13,0,0,1-13,13h-85a13,13,0,0,0,13-13v-9Z"/><path class="cls-21" d="M118.5,123v7a13,13,0,1,0,26,0v-7Z"/><path class="cls-22" d="M248.65,115.52a24.64,24.64,0,1,1,11.63,11.68h-8.43a3.2,3.2,0,0,1-3.2-3.2Z"/><path class="cls-10" d="M271.24,89.17h0m-.81,1.54L283.33,115h-25.8l12.9-24.27m0-4a2.06,2.06,0,0,0-1.83,1.1l-14.45,27.17a2.08,2.08,0,0,0,1.83,3h28.89a2.07,2.07,0,0,0,1.83-3L272.26,87.76a2.06,2.06,0,0,0-1.83-1.1Z"/><line class="cls-23" x1="270.43" y1="99.3" x2="270.43" y2="106.3"/><circle class="cls-10" cx="270.43" cy="111.51" r="1.5"/><path class="cls-24" d="M160.62,154.87a2,2,0,0,1,1.92.94c.66,1.15.39,2.25.69,2.58s.75,3.33-1.31,3.88c0,0-.29.13-.16.75l.13.62-3.78.36s-.29-1.37-.52-2.09Z"/><path class="cls-25" d="M161.89,155.19s-.81-.13-.49.53a2.28,2.28,0,0,1,.75,1.79c-.16,1-.58.72-.58.72s-.85-.82-1.21-.56-.43,1,.13,1.86c.43.66-.45,1.49-.89,1.88-.13.12-1.79,1.43-2,1.22,0,0-2.12-2.45-1.92-4.57s.84-3.94,3.48-4.23S161.89,154.74,161.89,155.19Z"/><path class="cls-26" d="M157.29,163.3l-.19,1.45h6l-1-1.7A9,9,0,0,1,157.29,163.3Z"/><path class="cls-27" d="M151,174.92s3,3.2,5.77,3.92l.82-8.61-4.45-2.72S152.27,167.65,151,174.92Z"/><path class="cls-28" d="M158.26,212.74c1.76.17.7,1.59.7,1.59h-7.1l.33-1.72.66-.16,2.89.49Z"/><path class="cls-29" d="M168.57,212.74c1.76.17.71,1.59.71,1.59h-7.11l.33-1.72.66-.16,2.89.49Z"/><path class="cls-25" d="M156.1,183.66l-4,29.64a3.15,3.15,0,0,0,3,0s4.55-20.2,6.36-26.26c0,0,.35-.44.39.14v25.73s2.21,1.18,3.48-.54l2.5-29.19Z"/><path class="cls-24" d="M177.1,158c-.21.29.94,1.54.75,2.75l1.89,1.1s2.6-2.69,2.44-2.84-1.61.88-1.61.88,2-1.95,1.7-2.15-1.89,1.67-1.89,1.67,1.68-2.57,1.37-2.69-1.51,1.35-2,2c0,0,1.13-2.15.76-2.29s-2,2.86-2,2.86S177.38,157.63,177.1,158Z"/><path class="cls-30" d="M177.65,161.16s.2-.62.56-.63,1.4.12,1.66.85a.94.94,0,0,1-.29.85C179.19,162.53,177.65,161.16,177.65,161.16Z"/><path class="cls-31" d="M152.73,168s1.89-3,4.86-3.52,6.52-.13,8.18.84l8.38.1s2.64-4,3.26-4.3c0,0,2-.72,2.25,1.07,0,0-1,4.54-3.36,6.82,0,0-7,1-9.55,1,0,0,1.73,11.12.95,14.25,0,0-7.5,3.65-12,.42l.37-10.76Z"/><rect class="cls-32" x="185.5" y="109.73" width="56" height="4"/><rect class="cls-32" x="185.5" y="123.69" width="56" height="4"/><rect class="cls-32" x="185.5" y="137.64" width="56" height="4"/><rect class="cls-33" x="185.5" y="152.46" width="16.52" height="4"/><rect class="cls-32" x="185.5" y="166.42" width="16.52" height="4"/><path class="cls-32" d="M227.5,153.27a10,10,0,1,1-10,10,10,10,0,0,1,10-10m0-4a14,14,0,1,0,14,14,14,14,0,0,0-14-14Z"/><path class="cls-32" d="M227.85,158.55l1.3,2.62a.38.38,0,0,0,.29.22l2.9.42a.39.39,0,0,1,.22.67l-2.1,2a.41.41,0,0,0-.11.35l.49,2.88a.4.4,0,0,1-.57.42l-2.59-1.37a.38.38,0,0,0-.36,0l-2.59,1.37a.4.4,0,0,1-.57-.42l.49-2.88a.41.41,0,0,0-.11-.35l-2.1-2a.39.39,0,0,1,.22-.67l2.9-.42a.38.38,0,0,0,.29-.22l1.3-2.62A.39.39,0,0,1,227.85,158.55Z"/><circle class="cls-34" cx="116.14" cy="168.21" r="6.61"/><path class="cls-35" d="M183.07,74.08h-4v-4a2,2,0,1,0-4,0v4h-4a2,2,0,0,0,0,4h4v4a2,2,0,0,0,4,0v-4h4a2,2,0,0,0,0-4Z"/></svg>